<svg width="31" height="53" viewBox="0 0 31 53" fill="none" xmlns="http://www.w3.org/2000/svg">
<g clip-path="url(#clip0_186_343)">
<path opacity="0.757" fill-rule="evenodd" clip-rule="evenodd" d="M26.9067 -0.067627C27.1751 -0.067627 27.4435 -0.067627 27.7119 -0.067627C24.2468 6.55374 20.78 13.1787 17.3115 19.8074C17.222 19.9426 17.222 20.0778 17.3115 20.213C18.1662 21.0515 18.9938 21.9078 19.7942 22.7819C19.8029 22.8411 19.7806 22.8862 19.7271 22.9171C19.319 22.5949 18.9387 22.2344 18.5864 21.8354C18.4757 21.7156 18.3415 21.6706 18.1838 21.7002C17.8337 21.3254 17.4533 20.9649 17.0431 20.6186C16.8837 20.7623 16.8166 20.9427 16.8418 21.1594C16.7523 21.0692 16.6629 20.9792 16.5734 20.889C16.5765 20.5609 16.6436 20.2454 16.7747 19.9426C17.093 19.4815 17.339 18.9857 17.5128 18.4553C17.8969 17.8617 18.2101 17.2307 18.4522 16.5625C18.7775 16.2234 19.0011 15.8178 19.1232 15.3456C19.5073 14.752 19.8205 14.121 20.0626 13.4528C20.2974 13.296 20.4316 13.0707 20.4652 12.7768C20.7569 12.3691 20.9806 11.9184 21.1362 11.4247C21.5512 10.9046 21.8643 10.3187 22.0756 9.66707C22.3226 9.34954 22.5015 8.98899 22.6124 8.58544C23.1257 7.82253 23.573 7.01131 23.9543 6.15176C24.9416 4.34256 25.8364 2.53984 26.6383 0.743598C25.3083 1.65982 24.0111 2.60625 22.7466 3.58288C21.7217 4.25598 20.7376 4.97707 19.7942 5.74615C19.2257 6.00911 18.7336 6.36966 18.318 6.82778C17.8962 7.06327 17.4936 7.33368 17.1102 7.63901C16.666 7.907 16.2634 8.22247 15.9024 8.58544C15.193 9.02992 14.522 9.52567 13.8894 10.0727C13.3185 10.3767 12.7817 10.7372 12.279 11.1543C11.8317 11.4698 11.3844 11.7853 10.937 12.1007C10.6686 12.1458 10.4002 12.1909 10.1318 12.2359C15.7473 8.16783 21.3389 4.06663 26.9067 -0.067627Z" fill="#F5FAFD"/>
<path fill-rule="evenodd" clip-rule="evenodd" d="M22.7468 3.58285C22.888 3.56264 23.0222 3.58518 23.1494 3.65045C23.2114 3.88322 23.2337 4.1311 23.2165 4.39408C23.585 4.58151 23.9205 4.80685 24.223 5.0701C24.0412 5.41333 23.8399 5.41333 23.6191 5.0701C23.3627 5.41126 23.1165 5.41126 22.881 5.0701C22.5622 5.35765 22.428 5.7182 22.4784 6.15173C22.8021 6.11712 23.0258 6.25232 23.1494 6.55734C23.2411 6.5083 23.3306 6.46323 23.4178 6.42214C23.4472 6.96666 23.2906 7.0568 22.9481 6.69255C22.752 7.06832 22.439 7.24859 22.0087 7.23336C21.283 7.0326 20.5449 6.94246 19.7944 6.96295C19.8261 6.62857 20.005 6.40322 20.3312 6.28693C20.1717 6.16137 19.9928 6.11631 19.7944 6.15173C19.7944 6.01653 19.7944 5.88132 19.7944 5.74612C20.7379 4.97704 21.7219 4.25595 22.7468 3.58285Z" fill="#F1B70E"/>
<path fill-rule="evenodd" clip-rule="evenodd" d="M23.9543 6.15182C23.7754 6.24196 23.5964 6.33209 23.4175 6.42223C23.3303 6.46331 23.2408 6.50839 23.1491 6.55743C23.0255 6.25241 22.8018 6.11721 22.4781 6.15182C22.4277 5.71829 22.5619 5.35774 22.8807 5.07018C23.1162 5.41135 23.3624 5.41135 23.6188 5.07018C23.8396 5.41341 24.0409 5.41341 24.2227 5.07018C23.9202 4.80694 23.5847 4.5816 23.2162 4.39416C23.2334 4.13119 23.2111 3.88331 23.1491 3.65054C23.0219 3.58526 22.8877 3.56273 22.7465 3.58294C24.0111 2.60631 25.3082 1.65988 26.6383 0.743652C25.8363 2.53989 24.9416 4.34261 23.9543 6.15182Z" fill="#F1B70E"/>
<path fill-rule="evenodd" clip-rule="evenodd" d="M19.7943 5.74609C19.7943 5.8813 19.7943 6.0165 19.7943 6.15171C19.9927 6.11628 20.1715 6.16135 20.3311 6.28691C20.0049 6.4032 19.826 6.62854 19.7943 6.96293C20.5448 6.94243 21.2829 7.03257 22.0086 7.23334C22.4388 7.24856 22.7519 7.0683 22.948 6.69252C23.2905 7.05678 23.4471 6.96664 23.4177 6.42211C23.5966 6.33197 23.7756 6.24185 23.9545 6.15171C23.5731 7.01125 23.1258 7.82248 22.6125 8.58538C22.3488 8.67042 22.0804 8.76056 21.8073 8.85579C20.789 8.65848 19.7602 8.52328 18.7207 8.45018C18.3419 8.20717 18.0735 7.86916 17.9155 7.43614C18.0427 7.37087 18.1769 7.34833 18.3181 7.36854C18.3181 7.18828 18.3181 7.00799 18.3181 6.82773C18.7337 6.3696 19.2258 6.00905 19.7943 5.74609Z" fill="#F1B70E"/>
<path fill-rule="evenodd" clip-rule="evenodd" d="M18.3182 6.82788C18.3182 7.00815 18.3182 7.18843 18.3182 7.3687C18.1771 7.34848 18.0429 7.37102 17.9156 7.4363C18.0736 7.86932 18.342 8.20733 18.7208 8.45033C19.7603 8.52343 20.7891 8.65864 21.8074 8.85594C22.0805 8.76072 22.3489 8.67058 22.6126 8.58553C22.5018 8.98909 22.3229 9.34964 22.0758 9.66717C21.7521 9.69341 21.6179 9.87368 21.6732 10.208C21.539 10.208 21.4048 10.208 21.2706 10.208C21.2706 10.0277 21.2706 9.84743 21.2706 9.66717C20.0628 9.66717 18.855 9.66717 17.6472 9.66717C17.6472 9.4869 17.6472 9.30662 17.6472 9.12635C17.2893 9.03621 16.9316 8.94608 16.5737 8.85594C16.5965 8.67719 16.5518 8.51946 16.4395 8.38273C16.8116 8.2621 17.0353 8.01423 17.1104 7.63911C17.4939 7.33377 17.8965 7.06337 18.3182 6.82788Z" fill="#F1B70E"/>
<path fill-rule="evenodd" clip-rule="evenodd" d="M17.1104 7.63892C17.0352 8.01404 16.8115 8.26191 16.4394 8.38254C16.5517 8.51927 16.5964 8.677 16.5736 8.85575C16.9315 8.94589 17.2893 9.03602 17.6472 9.12616C17.6472 9.30643 17.6472 9.48671 17.6472 9.66698C18.855 9.66698 20.0628 9.66698 21.2706 9.66698C21.2706 9.84724 21.2706 10.0275 21.2706 10.2078C21.4048 10.2078 21.539 10.2078 21.6732 10.2078C21.5619 10.8412 21.2264 11.0215 20.6667 10.7486C20.4234 10.7928 20.1997 10.8829 19.9957 11.019C19.2377 10.7687 18.4549 10.6786 17.6472 10.7486C17.6472 10.5683 17.6472 10.3881 17.6472 10.2078C17.4683 10.2078 17.2893 10.2078 17.1104 10.2078C17.1539 10.6396 16.9974 10.7748 16.6407 10.6134C16.5744 10.3925 16.5521 10.1671 16.5736 9.93739C16.2157 9.93739 15.8579 9.93739 15.5 9.93739C15.534 9.44627 15.6682 8.99559 15.9026 8.58534C16.2636 8.22238 16.6662 7.9069 17.1104 7.63892Z" fill="#F1B70E"/>
<path opacity="0.999" fill-rule="evenodd" clip-rule="evenodd" d="M15.9025 8.58545C15.668 8.9957 15.5338 9.44637 15.4999 9.93749C15.8578 9.93749 16.2156 9.93749 16.5735 9.93749C16.552 10.1672 16.5743 10.3926 16.6406 10.6135C16.9973 10.7749 17.1538 10.6397 17.1103 10.2079C17.2892 10.2079 17.4682 10.2079 17.6471 10.2079C17.6471 10.3882 17.6471 10.5684 17.6471 10.7487C18.4548 10.6787 19.2376 10.7688 19.9956 11.0191C20.1995 10.883 20.4232 10.7929 20.6666 10.7487C21.2263 11.0216 21.5618 10.8413 21.673 10.2079C21.6178 9.87359 21.752 9.69332 22.0756 9.66708C21.8644 10.3187 21.5513 10.9046 21.1362 11.4247C20.9443 11.414 20.7653 11.4591 20.5995 11.5599C20.4897 11.9124 20.4226 12.273 20.3982 12.6416C20.2387 12.4978 20.1716 12.3175 20.1969 12.1008C19.1838 11.8661 18.1549 11.7309 17.1103 11.6951C17.1103 11.5599 17.1103 11.4247 17.1103 11.2895C16.5735 11.2895 16.0367 11.2895 15.4999 11.2895C15.4999 11.1093 15.4999 10.929 15.4999 10.7487C15.2614 10.71 15.0377 10.6199 14.8289 10.4783C14.5257 10.8221 14.2349 10.8221 13.9566 10.4783C13.8943 10.5587 13.8719 10.6488 13.8895 10.7487C13.7557 10.7528 13.6662 10.6852 13.6211 10.5459C13.7458 10.4003 13.8353 10.2426 13.8895 10.0727C14.5221 9.52569 15.1931 9.02993 15.9025 8.58545Z" fill="#F1B70E"/>
<path fill-rule="evenodd" clip-rule="evenodd" d="M21.1366 11.4247C20.981 11.9184 20.7573 12.369 20.4656 12.7767C20.2998 12.8067 20.1656 12.8968 20.063 13.0471C19.8818 12.8511 19.6582 12.7609 19.392 12.7767C19.412 12.919 19.3897 13.0542 19.3249 13.1824C18.673 12.9236 17.9795 12.8334 17.2448 12.9119C17.2514 12.2307 17.1619 12.2081 16.9764 12.8443C16.8492 12.9096 16.715 12.9322 16.5738 12.9119C16.5738 12.7317 16.5738 12.5514 16.5738 12.3711C16.2159 12.3711 15.8581 12.3711 15.5002 12.3711C15.5002 12.1909 15.5002 12.0106 15.5002 11.8303C14.7656 11.857 14.0498 11.7669 13.353 11.5599C13.353 11.3796 13.353 11.1994 13.353 11.0191C13.7136 11.0413 14.0715 11.0187 14.4266 10.9515C14.2386 10.896 14.0597 10.8284 13.8898 10.7487C13.8722 10.6488 13.8947 10.5586 13.9569 10.4783C14.2353 10.8221 14.5261 10.8221 14.8292 10.4783C15.038 10.6198 15.2617 10.71 15.5002 10.7487C15.5002 10.9289 15.5002 11.1092 15.5002 11.2895C16.037 11.2895 16.5738 11.2895 17.1106 11.2895C17.1106 11.4247 17.1106 11.5599 17.1106 11.6951C18.1552 11.7309 19.1841 11.8661 20.1972 12.1007C20.172 12.3175 20.2391 12.4978 20.3985 12.6415C20.4229 12.2729 20.49 11.9124 20.5998 11.5599C20.7657 11.4591 20.9447 11.414 21.1366 11.4247Z" fill="#F1B70E"/>
<path fill-rule="evenodd" clip-rule="evenodd" d="M13.8894 10.0728C13.8352 10.2426 13.7456 10.4004 13.621 10.546C13.6661 10.6852 13.7556 10.7528 13.8894 10.7488C14.0593 10.8285 14.2382 10.8961 14.4262 10.9516C14.0711 11.0188 13.7132 11.0414 13.3526 11.0192C13.3526 11.1995 13.3526 11.3797 13.3526 11.56C14.0493 11.767 14.7652 11.8571 15.4998 11.8304C15.4998 12.0107 15.4998 12.191 15.4998 12.3712C15.8577 12.3712 16.2154 12.3712 16.5734 12.3712C16.5734 12.5515 16.5734 12.7318 16.5734 12.912C16.7145 12.9323 16.8487 12.9097 16.976 12.8444C17.1614 12.2082 17.2509 12.2308 17.2444 12.912C17.9791 12.8335 18.6725 12.9237 19.3244 13.1824C19.3893 13.0543 19.4115 12.9191 19.3915 12.7768C19.6578 12.761 19.8814 12.8512 20.0625 13.0472C20.1652 12.8969 20.2994 12.8068 20.4651 12.7768C20.4316 13.0708 20.2974 13.2961 20.0625 13.4529C19.8783 13.4317 19.6993 13.4542 19.5257 13.5205C19.6438 13.7038 19.6887 13.9066 19.6599 14.1289C19.4825 14.1059 19.3259 14.1509 19.1902 14.2641C19.1231 14.1965 19.056 14.1289 18.9889 14.0613C18.185 13.9938 17.3798 13.9712 16.5734 13.9937C16.5734 13.8134 16.5734 13.6331 16.5734 13.4529C16.2154 13.4529 15.8577 13.4529 15.4998 13.4529C15.4998 13.3177 15.4998 13.1824 15.4998 13.0472C15.3224 13.0702 15.1657 13.0252 15.0301 12.912C14.9643 13.0869 14.9419 13.2672 14.963 13.4529C14.7841 13.4529 14.6051 13.4529 14.4262 13.4529C14.4262 13.2726 14.4262 13.0923 14.4262 12.912C13.7047 12.9939 13.0338 12.8587 12.4132 12.5064C12.3131 12.3393 12.2684 12.159 12.279 11.9656C12.0832 11.9747 11.9043 11.9297 11.7422 11.8304C11.8478 11.6135 12.0267 11.5234 12.279 11.56C12.279 11.4248 12.279 11.2896 12.279 11.1544C12.7817 10.7373 13.3185 10.3768 13.8894 10.0728Z" fill="#F1B70E"/>
<path fill-rule="evenodd" clip-rule="evenodd" d="M12.2795 11.1543C12.2795 11.2895 12.2795 11.4247 12.2795 11.5599C12.0272 11.5233 11.8483 11.6134 11.7427 11.8303C11.5715 12.1788 11.3031 12.4267 10.9375 12.5739C11.1535 12.776 11.3771 12.7986 11.6085 12.6415C11.7065 12.8986 11.7065 13.169 11.6085 13.4528C11.8321 13.4528 12.0558 13.4528 12.2795 13.4528C12.2795 13.633 12.2795 13.8134 12.2795 13.9936C12.682 14.0386 12.861 13.8584 12.8162 13.4528C12.9952 13.4528 13.1741 13.4528 13.353 13.4528C13.353 13.633 13.353 13.8134 13.353 13.9936C14.2071 14.1241 15.057 14.1692 15.9028 14.1288C15.9028 14.264 15.9028 14.3992 15.9028 14.5344C16.1265 14.5344 16.3501 14.5344 16.5738 14.5344C16.5738 14.7146 16.5738 14.895 16.5738 15.0752C17.2755 15.2617 17.9912 15.3969 18.721 15.4808C18.8665 15.4558 19.0007 15.4108 19.1236 15.3456C19.0015 15.8178 18.7779 16.2234 18.4526 16.5625C18.3184 16.5625 18.1842 16.5625 18.05 16.5625C17.9549 16.4402 17.8207 16.3952 17.6474 16.4273C17.6474 16.247 17.6474 16.0667 17.6474 15.8864C17.1152 15.9759 16.5784 16.021 16.037 16.0216C16.037 15.8864 16.037 15.7512 16.037 15.616C15.5002 15.616 14.9634 15.616 14.4266 15.616C14.4266 15.4358 14.4266 15.2554 14.4266 15.0752C13.2109 15.0644 12.0031 15.087 10.8033 15.1428C10.7049 14.5979 10.6601 14.0571 10.6691 13.5204C10.2219 13.4296 10.0653 13.5874 10.1994 13.9936C9.8014 14.186 9.4659 14.0958 9.19287 13.7232C9.43817 13.5481 9.70657 13.4129 9.99807 13.3176C9.96998 13.2383 9.92525 13.1707 9.86387 13.1148C10.0324 13.0584 10.1219 12.9457 10.1323 12.7767C10.4007 12.5514 10.6691 12.3261 10.9375 12.1007C11.3848 11.7853 11.8321 11.4698 12.2795 11.1543Z" fill="#F1B70E"/>
<path opacity="0.997" fill-rule="evenodd" clip-rule="evenodd" d="M11.7422 11.8303C11.9043 11.9296 12.0832 11.9746 12.279 11.9655C12.2684 12.1589 12.3131 12.3392 12.4132 12.5063C13.0338 12.8587 13.7047 12.9939 14.4262 12.912C14.4262 13.0922 14.4262 13.2725 14.4262 13.4528C14.6051 13.4528 14.7841 13.4528 14.963 13.4528C14.9419 13.2671 14.9643 13.0868 15.0301 12.912C15.1658 13.0251 15.3224 13.0701 15.4998 13.0472C15.4998 13.1824 15.4998 13.3176 15.4998 13.4528C15.8577 13.4528 16.2155 13.4528 16.5734 13.4528C16.5734 13.633 16.5734 13.8134 16.5734 13.9936C17.3798 13.9711 18.185 13.9937 18.989 14.0612C19.0561 14.1288 19.1232 14.1964 19.1903 14.264C19.3259 14.1508 19.4825 14.1058 19.66 14.1288C19.6887 13.9065 19.6439 13.7037 19.5258 13.5204C19.6993 13.4541 19.8783 13.4316 20.0626 13.4528C19.8205 14.1209 19.5072 14.7519 19.1232 15.3456C19.0002 15.4108 18.866 15.4558 18.7206 15.4808C17.9908 15.3969 17.2751 15.2617 16.5734 15.0752C16.5734 14.895 16.5734 14.7146 16.5734 14.5344C16.3497 14.5344 16.1261 14.5344 15.9024 14.5344C15.9024 14.3992 15.9024 14.264 15.9024 14.1288C15.0565 14.1692 14.2066 14.1241 13.3526 13.9936C13.3526 13.8134 13.3526 13.633 13.3526 13.4528C13.1737 13.4528 12.9947 13.4528 12.8158 13.4528C12.8605 13.8584 12.6816 14.0386 12.279 13.9936C12.279 13.8134 12.279 13.633 12.279 13.4528C12.0553 13.4528 11.8317 13.4528 11.608 13.4528C11.7061 13.169 11.7061 12.8986 11.608 12.6415C11.3767 12.7986 11.153 12.776 10.937 12.5739C11.3027 12.4267 11.5711 12.1789 11.7422 11.8303Z" fill="#F1B70E"/>
<path fill-rule="evenodd" clip-rule="evenodd" d="M10.132 12.7769C10.1216 12.9458 10.0322 13.0585 9.86362 13.1149C9.925 13.1708 9.96973 13.2384 9.99782 13.3177C9.70632 13.413 9.43792 13.5482 9.19262 13.7233C9.46565 14.0959 9.80115 14.1861 10.1991 13.9937C10.0651 13.5875 10.2216 13.4298 10.6688 13.5205C10.6599 14.0572 10.7046 14.5981 10.803 15.1429C12.0029 15.0871 13.2107 15.0645 14.4264 15.0753C14.4264 15.2556 14.4264 15.4359 14.4264 15.6161C14.9632 15.6161 15.5 15.6161 16.0368 15.6161C16.0368 15.7513 16.0368 15.8865 16.0368 16.0218C16.5781 16.0211 17.1149 15.9761 17.6472 15.8865C17.6472 16.0668 17.6472 16.2471 17.6472 16.4274C17.8204 16.3953 17.9546 16.4403 18.0498 16.5626C18.0541 16.9109 17.9645 17.2263 17.7814 17.509C17.5609 17.5063 17.382 17.5965 17.2446 17.7794C17.0284 17.6685 16.9389 17.4882 16.9762 17.2386C16.6631 17.2386 16.3499 17.2386 16.0368 17.2386C16.0368 17.0584 16.0368 16.878 16.0368 16.6978C15.3211 16.6978 14.6053 16.6978 13.8896 16.6978C13.8896 16.5175 13.8896 16.3372 13.8896 16.157C12.9949 16.157 12.1003 16.157 11.2056 16.157C11.2056 15.9767 11.2056 15.7964 11.2056 15.6161C10.6241 15.6161 10.0425 15.6161 9.46102 15.6161C9.43821 15.4374 9.48295 15.2796 9.59522 15.1429C9.17126 15.1414 8.79102 15.0287 8.45453 14.8049C8.35051 15.0379 8.17158 15.1731 7.91773 15.2105C7.63158 15.1345 7.51974 14.9993 7.58223 14.8049C7.58223 14.7599 7.58223 14.7147 7.58223 14.6697C8.35542 13.9414 9.20534 13.3104 10.132 12.7769Z" fill="#F1B70E"/>
<path fill-rule="evenodd" clip-rule="evenodd" d="M7.58238 14.8049C7.51989 14.9994 7.63173 15.1346 7.91788 15.2105C8.17173 15.1731 8.35066 15.0379 8.45468 14.8049C8.79117 15.0287 9.17141 15.1415 9.59537 15.1429C9.4831 15.2796 9.43836 15.4374 9.46117 15.6162C10.0427 15.6162 10.6242 15.6162 11.2058 15.6162C11.2058 15.7964 11.2058 15.9767 11.2058 16.157C12.1004 16.157 12.9951 16.157 13.8897 16.157C13.8897 16.3372 13.8897 16.5176 13.8897 16.6978C14.6054 16.6978 15.3212 16.6978 16.0369 16.6978C16.0369 16.878 16.0369 17.0584 16.0369 17.2386C16.35 17.2386 16.6632 17.2386 16.9763 17.2386C16.939 17.4882 17.0285 17.6686 17.2447 17.7794C17.3821 17.5965 17.561 17.5063 17.7815 17.509C17.6178 17.7499 17.5284 18.0204 17.5131 18.3202C16.8421 18.3202 16.1711 18.3202 15.5001 18.3202C15.5001 18.14 15.5001 17.9596 15.5001 17.7794C15.3212 17.7794 15.1422 17.7794 14.9633 17.7794C14.9633 17.9596 14.9633 18.14 14.9633 18.3202C14.7844 18.3202 14.6054 18.3202 14.4265 18.3202C14.4265 18.14 14.4265 17.9596 14.4265 17.7794C14.2476 17.7794 14.0686 17.7794 13.8897 17.7794C13.8897 17.5992 13.8897 17.4188 13.8897 17.2386C13.3529 17.2386 12.8161 17.2386 12.2794 17.2386C12.2794 17.0584 12.2794 16.878 12.2794 16.6978C11.5636 16.6978 10.8479 16.6978 10.1322 16.6978C10.1322 16.5626 10.1322 16.4274 10.1322 16.2922C9.80044 16.2324 9.46494 16.1874 9.12567 16.157C8.73827 16.2386 8.35804 16.3288 7.98498 16.4274C7.98498 16.2472 7.98498 16.0668 7.98498 15.8866C7.49691 16.0214 7.00484 16.089 6.50879 16.0894C6.75286 15.9893 6.9318 15.8315 7.04559 15.6162C7.11765 15.2733 7.29658 15.0029 7.58238 14.8049Z" fill="#F1B70E"/>
<path fill-rule="evenodd" clip-rule="evenodd" d="M7.58203 14.6697C7.58203 14.7147 7.58203 14.7599 7.58203 14.8049C7.29623 15.0028 7.1173 15.2732 7.04523 15.6161C6.77929 15.683 6.51089 15.7506 6.24004 15.8189C6.35816 16.0022 6.40289 16.2051 6.37424 16.4273C6.55317 16.4273 6.73211 16.4273 6.91103 16.4273C6.91103 16.6076 6.91103 16.7879 6.91103 16.9681C7.60782 17.1751 8.32355 17.2652 9.05822 17.2386C9.05822 17.4188 9.05822 17.5991 9.05822 17.7794C9.77395 17.7794 10.4897 17.7794 11.2054 17.7794C11.2054 17.9596 11.2054 18.14 11.2054 18.3202C12.279 18.3202 13.3526 18.3202 14.4262 18.3202C14.6051 18.3202 14.7841 18.3202 14.963 18.3202C14.963 18.14 14.963 17.9596 14.963 17.7794C15.1419 17.7794 15.3209 17.7794 15.4998 17.7794C15.4998 17.9596 15.4998 18.14 15.4998 18.3202C16.1708 18.3202 16.8418 18.3202 17.5128 18.3202C17.5281 18.0203 17.6174 17.7499 17.7812 17.509C17.9643 17.2263 18.0539 16.9108 18.0496 16.5625C18.1838 16.5625 18.318 16.5625 18.4522 16.5625C18.2101 17.2307 17.8968 17.8617 17.5128 18.4554C17.3786 18.4554 17.2444 18.4554 17.1102 18.4554C17.1346 18.7381 17.0898 19.0085 16.976 19.2666C16.8653 19.3864 16.7311 19.4314 16.5734 19.4018C16.5791 19.8629 16.512 20.3135 16.3721 20.7539C16.152 21.2647 15.9954 21.2647 15.9024 20.7539C15.7682 20.7539 15.634 20.7539 15.4998 20.7539C15.4998 20.5736 15.4998 20.3933 15.4998 20.213C14.803 20.006 14.0872 19.916 13.3526 19.9426C13.3526 19.7624 13.3526 19.582 13.3526 19.4018C12.4579 19.4018 11.5633 19.4018 10.6686 19.4018C10.6686 19.2216 10.6686 19.0412 10.6686 18.861C10.1318 18.861 9.59502 18.861 9.05822 18.861C9.05822 18.6808 9.05822 18.5004 9.05822 18.3202C8.16356 18.3202 7.2689 18.3202 6.37424 18.3202C6.39574 18.0905 6.37337 17.8651 6.30714 17.6442C5.96363 17.402 5.58339 17.2444 5.16644 17.171C5.21117 17.1259 5.25592 17.0808 5.30064 17.0357C4.93935 16.9776 4.58148 17.0002 4.22705 17.1034C5.27316 16.1932 6.3915 15.3819 7.58203 14.6697Z" fill="#F1B70E"/>
<path fill-rule="evenodd" clip-rule="evenodd" d="M7.04543 15.616C6.93164 15.8313 6.7527 15.9891 6.50863 16.0892C7.00469 16.0888 7.49675 16.0212 7.98482 15.8864C7.98482 16.0666 7.98482 16.247 7.98482 16.4272C8.35788 16.3286 8.73811 16.2384 9.12552 16.1568C9.46479 16.1872 9.80028 16.2322 10.132 16.292C10.132 16.4272 10.132 16.5624 10.132 16.6976C10.8477 16.6976 11.5635 16.6976 12.2792 16.6976C12.2792 16.8778 12.2792 17.0582 12.2792 17.2384C12.816 17.2384 13.3528 17.2384 13.8896 17.2384C13.8896 17.4186 13.8896 17.599 13.8896 17.7792C14.0685 17.7792 14.2475 17.7792 14.4264 17.7792C14.4264 17.9595 14.4264 18.1398 14.4264 18.32C13.3528 18.32 12.2792 18.32 11.2056 18.32C11.2056 18.1398 11.2056 17.9595 11.2056 17.7792C10.4899 17.7792 9.77414 17.7792 9.05842 17.7792C9.05842 17.599 9.05842 17.4186 9.05842 17.2384C8.32374 17.2651 7.60802 17.175 6.91123 16.968C6.91123 16.7878 6.91123 16.6074 6.91123 16.4272C6.7323 16.4272 6.55336 16.4272 6.37443 16.4272C6.40309 16.2049 6.35836 16.0021 6.24023 15.8188C6.51109 15.7505 6.77949 15.6829 7.04543 15.616Z" fill="#F1B70E"/>
<path fill-rule="evenodd" clip-rule="evenodd" d="M3.82458 18.0498C3.82458 18.185 3.82458 18.3202 3.82458 18.4554C4.67192 18.6125 5.52186 18.7477 6.37436 18.861C6.37436 19.0413 6.37436 19.2216 6.37436 19.4018C7.26903 19.4018 8.16368 19.4018 9.05834 19.4018C9.05834 19.5821 9.05834 19.7624 9.05834 19.9427C9.41621 19.9427 9.77407 19.9427 10.1319 19.9427C10.1319 19.7624 10.1319 19.5821 10.1319 19.4018C10.3094 19.3789 10.4659 19.4239 10.6016 19.537C10.6683 19.8494 10.6906 20.1648 10.6687 20.4835C11.2055 20.4835 11.7423 20.4835 12.2791 20.4835C12.2791 20.6637 12.2791 20.8441 12.2791 21.0243C12.4581 21.0243 12.637 21.0243 12.8159 21.0243C12.8159 20.8441 12.8159 20.6637 12.8159 20.4835C12.9948 20.4835 13.1738 20.4835 13.3527 20.4835C13.3527 20.6637 13.3527 20.8441 13.3527 21.0243C13.7106 21.0243 14.0684 21.0243 14.4263 21.0243C14.4263 21.2045 14.4263 21.3849 14.4263 21.5651C14.9806 21.5697 15.5173 21.6599 16.0367 21.8355C16.0664 21.5429 16.2006 21.3177 16.4393 21.1595C16.4339 21.6311 16.3444 22.0817 16.1709 22.5115C15.9632 22.5549 15.8736 22.6901 15.9025 22.9172C15.4347 22.7207 14.9426 22.6307 14.4263 22.6467C14.4263 22.4665 14.4263 22.2862 14.4263 22.1059C14.0684 22.1059 13.7106 22.1059 13.3527 22.1059C13.3527 21.9257 13.3527 21.7453 13.3527 21.5651C12.2791 21.5651 11.2055 21.5651 10.1319 21.5651C10.1319 21.3849 10.1319 21.2045 10.1319 21.0243C9.77407 21.0243 9.41621 21.0243 9.05834 21.0243C9.05834 20.8441 9.05834 20.6637 9.05834 20.4835C8.16368 20.4835 7.26903 20.4835 6.37436 20.4835C6.37436 20.3033 6.37436 20.1229 6.37436 19.9427C5.83756 19.9427 5.30077 19.9427 4.76397 19.9427C4.76397 19.7624 4.76397 19.5821 4.76397 19.4018C4.14867 19.4712 3.56714 19.381 3.01938 19.1314C2.73719 19.4763 2.44643 19.4763 2.14709 19.1314C1.88677 19.3561 1.7973 19.3111 1.87869 18.9962C2.19186 18.6016 2.57208 18.4664 3.01938 18.5906C3.29656 18.4071 3.56495 18.2269 3.82458 18.0498Z" fill="#F1B70E"/>
<path fill-rule="evenodd" clip-rule="evenodd" d="M17.513 18.4555C17.3392 18.9859 17.0932 19.4816 16.7749 19.9427C16.6438 20.2456 16.5767 20.561 16.5736 20.8891C16.5289 20.9793 16.4841 21.0694 16.4394 21.1595C16.2007 21.3177 16.0665 21.543 16.0368 21.8356C15.5175 21.6599 14.9807 21.5697 14.4264 21.5651C14.4264 21.3849 14.4264 21.2046 14.4264 21.0243C14.0685 21.0243 13.7108 21.0243 13.3528 21.0243C13.3528 20.8441 13.3528 20.6637 13.3528 20.4835C13.1739 20.4835 12.995 20.4835 12.8161 20.4835C12.8161 20.6637 12.8161 20.8441 12.8161 21.0243C12.6371 21.0243 12.4582 21.0243 12.2793 21.0243C12.2793 20.8441 12.2793 20.6637 12.2793 20.4835C11.7425 20.4835 11.2057 20.4835 10.6689 20.4835C10.6908 20.1648 10.6684 19.8494 10.6018 19.5371C10.4661 19.4239 10.3095 19.3789 10.1321 19.4019C10.1321 19.5821 10.1321 19.7625 10.1321 19.9427C9.7742 19.9427 9.41634 19.9427 9.05848 19.9427C9.05848 19.7625 9.05848 19.5821 9.05848 19.4019C8.16381 19.4019 7.26916 19.4019 6.37449 19.4019C6.37449 19.2217 6.37449 19.0413 6.37449 18.8611C5.52199 18.7478 4.67205 18.6126 3.82471 18.4555C3.82471 18.3202 3.82471 18.185 3.82471 18.0498C3.9406 17.8892 4.0748 17.7314 4.2273 17.5766C4.06837 17.4218 4.06837 17.264 4.2273 17.1034C4.58174 17.0002 4.93961 16.9777 5.3009 17.0358C5.25617 17.0808 5.21143 17.126 5.1667 17.171C5.58364 17.2444 5.96388 17.4021 6.30739 17.6442C6.37362 17.8651 6.39599 18.0905 6.37449 18.3202C7.26916 18.3202 8.16381 18.3202 9.05848 18.3202C9.05848 18.5005 9.05848 18.6808 9.05848 18.8611C9.59527 18.8611 10.1321 18.8611 10.6689 18.8611C10.6689 19.0413 10.6689 19.2217 10.6689 19.4019C11.5635 19.4019 12.4582 19.4019 13.3528 19.4019C13.3528 19.5821 13.3528 19.7625 13.3528 19.9427C14.0875 19.9161 14.8033 20.0061 15.5 20.2131C15.5 20.3933 15.5 20.5737 15.5 20.7539C15.6342 20.7539 15.7684 20.7539 15.9026 20.7539C15.9956 21.2647 16.1522 21.2647 16.3723 20.7539C16.5123 20.3136 16.5794 19.8629 16.5736 19.4019C16.7313 19.4315 16.8655 19.3865 16.9762 19.2667C17.09 19.0086 17.1349 18.7382 17.1104 18.4555C17.2446 18.4555 17.3788 18.4555 17.513 18.4555Z" fill="#F1B70E"/>
<path fill-rule="evenodd" clip-rule="evenodd" d="M15.7682 23.7283C15.5973 24.203 15.4631 24.6988 15.3656 25.2156C14.8912 25.1246 14.8465 24.9218 15.2314 24.6072C15.0647 24.5651 14.9305 24.6327 14.8288 24.81C14.7041 24.6492 14.6594 24.469 14.6946 24.2692C14.0683 24.2692 13.4421 24.2692 12.8158 24.2692C12.8158 24.0889 12.8158 23.9086 12.8158 23.7283C11.9211 23.7283 11.0265 23.7283 10.1318 23.7283C10.1318 23.5481 10.1318 23.3677 10.1318 23.1875C9.59501 23.1875 9.05822 23.1875 8.52142 23.1875C8.52142 23.0073 8.52142 22.8269 8.52142 22.6467C7.8057 22.6467 7.08996 22.6467 6.37423 22.6467C6.37423 22.4665 6.37423 22.2861 6.37423 22.1059C5.46108 22.1485 4.56641 22.0583 3.69025 21.8355C3.69025 21.6553 3.69025 21.4749 3.69025 21.2947C3.20139 21.4287 2.70932 21.5639 2.21406 21.7003C1.91018 21.5599 1.86544 21.3571 2.07986 21.0919C1.92753 20.6151 1.63676 20.4573 1.20757 20.6186C1.03174 20.5335 0.919907 20.3983 0.87207 20.213C1.22062 20.1832 1.22062 20.1155 0.87207 20.0102C1.09137 19.9434 1.31504 19.921 1.54307 19.9426C1.53861 20.381 1.71755 20.426 2.07986 20.0778C2.42697 19.9453 2.78482 19.9003 3.15346 19.9426C3.15346 20.1228 3.15346 20.3032 3.15346 20.4834C3.86918 20.4834 4.58492 20.4834 5.30064 20.4834C5.30064 20.6637 5.30064 20.844 5.30064 21.0243C5.83744 21.0243 6.37423 21.0243 6.91103 21.0243C6.91103 21.2045 6.91103 21.3848 6.91103 21.5651C7.44783 21.5651 7.98462 21.5651 8.52142 21.5651C8.52142 21.7453 8.52142 21.9257 8.52142 22.1059C9.05822 22.1059 9.59501 22.1059 10.1318 22.1059C10.1318 22.2861 10.1318 22.4665 10.1318 22.6467C11.2054 22.6467 12.279 22.6467 13.3526 22.6467C13.3526 22.8269 13.3526 23.0073 13.3526 23.1875C13.7105 23.1875 14.0683 23.1875 14.4262 23.1875C14.3889 23.4371 14.4784 23.6175 14.6946 23.7283C15.0552 23.37 15.4131 23.37 15.7682 23.7283Z" fill="#F1B70E"/>
<path opacity="0.999" fill-rule="evenodd" clip-rule="evenodd" d="M4.22746 17.1033C4.06853 17.2639 4.06853 17.4217 4.22746 17.5765C4.07495 17.7313 3.94075 17.8891 3.82486 18.0497C3.56524 18.2268 3.29684 18.407 3.01967 18.5905C2.57237 18.4663 2.19214 18.6015 1.87897 18.9961C1.79758 19.311 1.88705 19.356 2.14737 19.1313C2.44672 19.4762 2.73747 19.4762 3.01967 19.1313C3.56743 19.3809 4.14895 19.4711 4.76425 19.4017C4.76425 19.582 4.76425 19.7623 4.76425 19.9426C5.30105 19.9426 5.83785 19.9426 6.37464 19.9426C6.37464 20.1228 6.37464 20.3031 6.37464 20.4834C7.26931 20.4834 8.16396 20.4834 9.05863 20.4834C9.05863 20.6636 9.05863 20.844 9.05863 21.0242C9.41649 21.0242 9.77435 21.0242 10.1322 21.0242C10.1322 21.2044 10.1322 21.3848 10.1322 21.565C11.2058 21.565 12.2794 21.565 13.353 21.565C13.353 21.7452 13.353 21.9256 13.353 22.1058C13.7109 22.1058 14.0687 22.1058 14.4266 22.1058C14.4266 22.286 14.4266 22.4664 14.4266 22.6466C14.9429 22.6305 15.435 22.7206 15.9028 22.917C15.8739 22.69 15.9634 22.5548 16.1712 22.5114C16.1712 22.5565 16.1712 22.6016 16.1712 22.6466C16.0036 22.9964 15.8694 23.357 15.7686 23.7283C15.4135 23.37 15.0556 23.37 14.695 23.7283C14.4788 23.6174 14.3893 23.437 14.4266 23.1875C14.0687 23.1875 13.7109 23.1875 13.353 23.1875C13.353 23.0072 13.353 22.8269 13.353 22.6466C12.2794 22.6466 11.2058 22.6466 10.1322 22.6466C10.1322 22.4664 10.1322 22.286 10.1322 22.1058C9.59542 22.1058 9.05863 22.1058 8.52183 22.1058C8.52183 21.9256 8.52183 21.7452 8.52183 21.565C7.98503 21.565 7.44824 21.565 6.91144 21.565C6.91144 21.3848 6.91144 21.2044 6.91144 21.0242C6.37464 21.0242 5.83785 21.0242 5.30105 21.0242C5.30105 20.844 5.30105 20.6636 5.30105 20.4834C4.58533 20.4834 3.86959 20.4834 3.15387 20.4834C3.15387 20.3031 3.15387 20.1228 3.15387 19.9426C2.78523 19.9002 2.42738 19.9453 2.08027 20.0778C1.71796 20.4259 1.53902 20.3809 1.54348 19.9426C1.31545 19.9209 1.09178 19.9434 0.87248 20.0102C1.22103 20.1155 1.22103 20.1831 0.87248 20.213C0.792398 20.1812 0.747666 20.1136 0.738281 20.0102C0.994958 19.8191 1.17389 19.5713 1.27508 19.2665C2.21053 18.4796 3.19465 17.7586 4.22746 17.1033Z" fill="#F1B70E"/>
<path fill-rule="evenodd" clip-rule="evenodd" d="M1.27484 19.2666C1.17366 19.5714 0.994724 19.8192 0.738047 20.0102C0.747431 20.1137 0.792164 20.1813 0.872246 20.213C0.920083 20.3983 1.03191 20.5335 1.20774 20.6186C1.63694 20.4573 1.92771 20.6151 2.08004 21.0919C1.86561 21.3571 1.91036 21.5599 2.21424 21.7003C2.7095 21.5639 3.20157 21.4287 3.69043 21.2947C3.69043 21.4749 3.69043 21.6553 3.69043 21.8355C4.56659 22.0583 5.46125 22.1485 6.37441 22.1059C6.37441 22.2861 6.37441 22.4665 6.37441 22.6467C7.09013 22.6467 7.80587 22.6467 8.5216 22.6467C8.5216 22.8269 8.5216 23.0073 8.5216 23.1875C9.05839 23.1875 9.59519 23.1875 10.132 23.1875C10.132 23.3677 10.132 23.5481 10.132 23.7283C11.0267 23.7283 11.9213 23.7283 12.816 23.7283C12.816 23.9086 12.816 24.0889 12.816 24.2692C13.4423 24.2692 14.0684 24.2692 14.6948 24.2692C14.6596 24.469 14.7043 24.6492 14.829 24.81C14.9307 24.6327 15.0649 24.5651 15.2316 24.6072C14.8467 24.9218 14.8914 25.1246 15.3658 25.2156C15.4633 24.6988 15.5975 24.203 15.7683 23.7283C15.8691 23.3571 16.0033 22.9965 16.1709 22.6467C16.0405 23.5746 15.8615 24.4759 15.6341 25.3508C15.3953 25.5522 15.3059 25.8227 15.3658 26.162C15.2774 26.0406 15.1881 25.9054 15.0974 25.7564C14.8865 25.8658 14.6628 25.9109 14.4264 25.8916C14.4264 25.7114 14.4264 25.531 14.4264 25.3508C13.7107 25.3508 12.9949 25.3508 12.2792 25.3508C12.2792 25.1706 12.2792 24.9902 12.2792 24.81C11.5634 24.81 10.8477 24.81 10.132 24.81C10.132 24.6297 10.132 24.4494 10.132 24.2692C9.59519 24.2692 9.05839 24.2692 8.5216 24.2692C8.5216 24.0889 8.5216 23.9086 8.5216 23.7283C7.69472 23.7074 6.88952 23.7074 6.10601 23.7283C5.29109 23.3604 4.46352 23.045 3.62333 22.7819C3.48761 22.8951 3.33106 22.9401 3.15363 22.9171C2.21895 22.0432 1.30193 21.1417 0.402549 20.213C0.313083 20.0778 0.313083 19.9426 0.402549 19.8074C0.680251 19.5931 0.971017 19.4128 1.27484 19.2666Z" fill="#F1B70E"/>
<path opacity="0.982" fill-rule="evenodd" clip-rule="evenodd" d="M16.5738 20.8889C16.6633 20.9791 16.7527 21.0691 16.8422 21.1593C16.633 22.3786 16.4094 23.5954 16.1712 24.8098C15.9479 25.8885 15.7242 26.9701 15.5002 28.0547C15.3935 28.5923 15.304 29.1331 15.2318 29.6772C15.1333 29.8405 15.0886 30.0207 15.0976 30.218C14.9509 30.7445 14.8614 31.2853 14.8292 31.8404C14.5226 32.6536 14.3436 33.5099 14.2924 34.4093C14.2477 34.4093 14.2029 34.4093 14.1582 34.4093C14.1738 33.9483 13.9502 33.7679 13.4872 33.8685C13.4425 33.6883 13.3978 33.5079 13.353 33.3277C13.5295 33.4597 13.7084 33.5949 13.8898 33.7333C14.3324 32.2751 14.6455 30.7879 14.8292 29.2716C15.1314 27.9743 15.3998 26.6673 15.6344 25.3507C15.8617 24.4757 16.0408 23.5745 16.1712 22.6466C16.1712 22.6015 16.1712 22.5564 16.1712 22.5114C16.3447 22.0816 16.4342 21.6309 16.4396 21.1593C16.4843 21.0691 16.5291 20.9791 16.5738 20.8889Z" fill="#E4FBFE"/>
<path fill-rule="evenodd" clip-rule="evenodd" d="M15.3659 26.1621C15.3859 26.3043 15.3636 26.4395 15.2988 26.5677C15.2025 26.4391 15.0907 26.4167 14.9633 26.5001C15.1107 26.6042 15.1107 26.7168 14.9633 26.8381C14.82 26.9644 14.6411 27.0095 14.4265 26.9733C14.4265 26.7931 14.4265 26.6127 14.4265 26.4325C13.8897 26.4325 13.3529 26.4325 12.8161 26.4325C12.8161 26.2973 12.8161 26.1621 12.8161 26.0269C11.9263 25.9145 11.0316 25.8695 10.1322 25.8917C10.1322 25.7114 10.1322 25.5311 10.1322 25.3509C9.95323 25.3509 9.77429 25.3509 9.59537 25.3509C9.59537 25.2157 9.59537 25.0805 9.59537 24.9452C9.2375 24.9452 8.87964 24.9452 8.52177 24.9452C8.52177 25.0805 8.52177 25.2157 8.52177 25.3509C8.34284 25.3509 8.1639 25.3509 7.98498 25.3509C7.98498 25.1706 7.98498 24.9903 7.98498 24.81C7.80605 24.81 7.62711 24.81 7.44818 24.81C7.44818 24.6298 7.44818 24.4495 7.44818 24.2692C7.13505 24.2692 6.82191 24.2692 6.50879 24.2692C6.43468 24.5168 6.43468 24.742 6.50879 24.9452C6.11584 25.0783 5.71324 25.1233 5.30099 25.0805C4.54053 24.4044 3.8248 23.6834 3.15381 22.9172C3.33123 22.9402 3.48779 22.8951 3.62351 22.782C4.4637 23.0451 5.29126 23.3605 6.10619 23.7284C6.8897 23.7075 7.69489 23.7075 8.52177 23.7284C8.52177 23.9086 8.52177 24.089 8.52177 24.2692C9.05857 24.2692 9.59537 24.2692 10.1322 24.2692C10.1322 24.4495 10.1322 24.6298 10.1322 24.81C10.8479 24.81 11.5636 24.81 12.2793 24.81C12.2793 24.9903 12.2793 25.1706 12.2793 25.3509C12.9951 25.3509 13.7108 25.3509 14.4265 25.3509C14.4265 25.5311 14.4265 25.7114 14.4265 25.8917C14.663 25.911 14.8867 25.8659 15.0975 25.7565C15.1882 25.9055 15.2776 26.0407 15.3659 26.1621Z" fill="#F1B70E"/>
<path fill-rule="evenodd" clip-rule="evenodd" d="M18.1839 21.7003C19.168 22.7369 20.1522 23.7734 21.1363 24.81C19.8088 24.8292 18.4668 24.8292 17.1103 24.81C17.132 25.084 17.1096 25.3544 17.0432 25.6212C16.9213 25.359 16.72 25.2238 16.4393 25.2156C16.4604 25.03 16.438 24.8496 16.3722 24.6748C16.3208 24.7499 16.2537 24.795 16.1709 24.81C16.4091 23.5956 16.6327 22.3787 16.8419 21.1595C16.8167 20.9427 16.8838 20.7624 17.0432 20.6187C17.4534 20.9649 17.8338 21.3255 18.1839 21.7003Z" fill="#F1B70E"/>
<path fill-rule="evenodd" clip-rule="evenodd" d="M14.9631 26.8379C15.1125 27.0334 15.1349 27.2588 15.0302 27.5139C15.0144 27.7942 14.8802 27.9746 14.6276 28.0548C13.9098 27.6072 13.127 27.427 12.2791 27.5139C12.2791 27.3337 12.2791 27.1534 12.2791 26.9731C11.5634 26.9731 10.8477 26.9731 10.132 26.9731C10.132 26.7929 10.132 26.6125 10.132 26.4323C9.02475 26.5215 7.97352 26.3412 6.97827 25.8915C6.74129 25.9906 6.49526 26.0358 6.24018 26.0267C5.88231 25.7563 5.56918 25.4409 5.30078 25.0803C5.71303 25.1231 6.11563 25.0781 6.50857 24.9451C6.43447 24.7419 6.43447 24.5166 6.50857 24.269C6.8217 24.269 7.13484 24.269 7.44797 24.269C7.44797 24.4493 7.44797 24.6296 7.44797 24.8099C7.6269 24.8099 7.80584 24.8099 7.98476 24.8099C7.98476 24.9901 7.98476 25.1704 7.98476 25.3507C8.16369 25.3507 8.34263 25.3507 8.52156 25.3507C8.52156 25.2155 8.52156 25.0803 8.52156 24.9451C8.87943 24.9451 9.23728 24.9451 9.59515 24.9451C9.59515 25.0803 9.59515 25.2155 9.59515 25.3507C9.77408 25.3507 9.95302 25.3507 10.132 25.3507C10.132 25.5309 10.132 25.7113 10.132 25.8915C11.0314 25.8693 11.926 25.9143 12.8159 26.0267C12.8159 26.1619 12.8159 26.2971 12.8159 26.4323C13.3527 26.4323 13.8895 26.4323 14.4263 26.4323C14.4263 26.6125 14.4263 26.7929 14.4263 26.9731C14.6409 27.0094 14.8198 26.9642 14.9631 26.8379Z" fill="#F1B70E"/>
<path fill-rule="evenodd" clip-rule="evenodd" d="M21.1364 24.81C21.8969 25.486 22.6126 26.2071 23.2836 26.9733C22.9966 26.9458 22.7729 26.8106 22.6126 26.5677C22.5069 26.668 22.4176 26.7806 22.3442 26.9057C20.6001 26.9733 18.8555 26.9959 17.1104 26.9733C17.1104 26.8381 17.1104 26.7029 17.1104 26.5677C16.7164 26.6902 16.3138 26.7802 15.9026 26.8381C15.8729 27.2138 15.9176 27.5744 16.0368 27.9197C15.8579 27.9647 15.6789 28.0099 15.5 28.0549C15.724 26.9703 15.9477 25.8887 16.171 24.81C16.2538 24.795 16.3209 24.75 16.3723 24.6748C16.4381 24.8496 16.4605 25.03 16.4394 25.2156C16.7201 25.2239 16.9214 25.3591 17.0433 25.6212C17.1097 25.3545 17.1321 25.0841 17.1104 24.81C18.4669 24.8292 19.8089 24.8292 21.1364 24.81Z" fill="#F1B70E"/>
<path fill-rule="evenodd" clip-rule="evenodd" d="M23.2834 26.9732C23.5071 27.1084 23.686 27.2887 23.8202 27.5141C23.568 27.6278 23.2996 27.6729 23.015 27.6493C23.015 27.7845 23.015 27.9197 23.015 28.0549C20.942 28.1361 18.8843 28.0459 16.8418 27.7845C16.5902 28.0353 16.3218 28.0804 16.0366 27.9197C15.9175 27.5744 15.8728 27.2138 15.9024 26.838C16.3136 26.7802 16.7162 26.6901 17.1102 26.5676C17.1102 26.7028 17.1102 26.838 17.1102 26.9732C18.8553 26.9958 20.5999 26.9732 22.344 26.9056C22.4174 26.7806 22.5068 26.6679 22.6124 26.5676C22.7727 26.8106 22.9965 26.9458 23.2834 26.9732Z" fill="#F1B70E"/>
<path fill-rule="evenodd" clip-rule="evenodd" d="M15.6342 25.3508C15.3996 26.6674 15.1312 27.9745 14.829 29.2717C14.7843 29.2717 14.7395 29.2717 14.6948 29.2717C14.5221 29.4432 14.3879 29.3982 14.2922 29.1365C14.1609 29.201 14.0491 29.2911 13.9567 29.407C13.1651 28.7432 12.248 28.4728 11.2056 28.5957C11.2056 28.4155 11.2056 28.2351 11.2056 28.0549C10.7115 28.0326 10.2195 28.055 9.72941 28.1225C9.25451 28.7401 8.96375 28.6275 8.85712 27.7845C8.5301 28.2996 8.37353 28.2096 8.38742 27.5141C8.04706 27.2329 7.64447 27.0526 7.17963 26.9733C6.82176 26.7029 6.50863 26.3874 6.24023 26.0269C6.49532 26.0359 6.74135 25.9908 6.97833 25.8916C7.97358 26.3413 9.02481 26.5217 10.132 26.4325C10.132 26.6127 10.132 26.7931 10.132 26.9733C10.8477 26.9733 11.5635 26.9733 12.2792 26.9733C12.2792 27.1535 12.2792 27.3339 12.2792 27.5141C13.1271 27.4272 13.9098 27.6074 14.6277 28.0549C14.8802 27.9747 15.0144 27.7944 15.0303 27.5141C15.135 27.259 15.1125 27.0336 14.9632 26.8381C15.1105 26.7168 15.1105 26.6042 14.9632 26.5001C15.0905 26.4166 15.2023 26.4391 15.2987 26.5677C15.3635 26.4395 15.3858 26.3043 15.3658 26.1621C15.3059 25.8227 15.3953 25.5523 15.6342 25.3508Z" fill="#F1B70E"/>
<path fill-rule="evenodd" clip-rule="evenodd" d="M23.8202 27.5139C24.4465 28.0547 25.028 28.6406 25.5648 29.2716C25.2302 29.2947 24.9842 29.1595 24.8267 28.866C24.6597 29.1296 24.4138 29.2648 24.0886 29.2716C21.7644 29.1214 19.4383 29.0989 17.1102 29.204C16.9979 29.3407 16.9532 29.4984 16.976 29.6772C16.704 29.6991 16.4356 29.6765 16.1708 29.6096C16.0585 29.4729 16.0138 29.3151 16.0366 29.1364C15.9024 29.1364 15.7682 29.1364 15.634 29.1364C15.634 29.3166 15.634 29.497 15.634 29.6772C15.4998 29.6772 15.3656 29.6772 15.2314 29.6772C15.3036 29.1331 15.3932 28.5923 15.4998 28.0547C15.6787 28.0097 15.8578 27.9646 16.0366 27.9195C16.3218 28.0803 16.5902 28.0351 16.8418 27.7843C18.8843 28.0458 20.942 28.136 23.015 28.0547C23.015 27.9195 23.015 27.7843 23.015 27.6491C23.2996 27.6728 23.568 27.6276 23.8202 27.5139Z" fill="#F1B70E"/>
<path fill-rule="evenodd" clip-rule="evenodd" d="M25.5649 29.2716C25.9228 29.542 26.2358 29.8574 26.5042 30.218C26.2903 30.1612 26.089 30.0712 25.9004 29.9476C22.9858 30.1684 20.0558 30.3036 17.1103 30.3532C16.6806 30.4272 16.278 30.5624 15.9025 30.7588C15.6318 30.5613 15.3634 30.3811 15.0973 30.218C15.0883 30.0207 15.133 29.8405 15.2315 29.6772C15.3657 29.6772 15.4999 29.6772 15.6341 29.6772C15.6341 29.497 15.6341 29.3166 15.6341 29.1364C15.7683 29.1364 15.9025 29.1364 16.0367 29.1364C16.0139 29.3151 16.0586 29.4729 16.1709 29.6096C16.4357 29.6765 16.7041 29.6991 16.9761 29.6772C16.9533 29.4985 16.998 29.3407 17.1103 29.204C19.4384 29.0989 21.7645 29.1214 24.0887 29.2716C24.4138 29.2648 24.6598 29.1296 24.8268 28.866C24.9843 29.1595 25.2303 29.2947 25.5649 29.2716Z" fill="#F1B70E"/>
<path fill-rule="evenodd" clip-rule="evenodd" d="M7.17969 26.9731C7.64453 27.0525 8.04712 27.2327 8.38748 27.514C8.37359 28.2095 8.53016 28.2995 8.85718 27.7844C8.96381 28.6274 9.25457 28.74 9.72947 28.1224C10.2195 28.0549 10.7116 28.0325 11.2057 28.0548C11.2057 28.235 11.2057 28.4154 11.2057 28.5956C12.2481 28.4727 13.1651 28.7431 13.9567 29.4068C14.0492 29.2909 14.161 29.2009 14.2922 29.1364C14.3879 29.398 14.5221 29.4431 14.6948 29.2716C14.438 30.055 14.2814 30.8662 14.2251 31.7053C14.158 31.6377 14.0909 31.5701 14.0238 31.5025C14.189 31.3425 14.189 31.1849 14.0238 31.0293C13.6683 31.3725 13.3104 31.3725 12.9502 31.0293C12.6192 31.3661 12.2166 31.5463 11.7425 31.5701C10.1768 30.0828 8.65588 28.5506 7.17969 26.9731Z" fill="#F1B70E"/>
<path fill-rule="evenodd" clip-rule="evenodd" d="M26.5044 30.2182C27.0859 30.714 27.6227 31.2548 28.1148 31.8406C27.8907 31.8067 27.6894 31.7165 27.5109 31.5702C27.4662 31.6152 27.4214 31.6604 27.3767 31.7054C27.275 31.3796 27.0513 31.2444 26.7057 31.2998C24.2736 31.2943 21.8356 31.3168 19.3919 31.3674C19.2795 31.5041 19.2349 31.6619 19.2577 31.8406C17.7815 31.8406 16.3053 31.8406 14.8291 31.8406C14.8613 31.2855 14.9508 30.7446 15.0975 30.2182C15.3636 30.3812 15.632 30.5614 15.9027 30.759C16.2782 30.5625 16.6808 30.4273 17.1105 30.3534C20.056 30.3037 22.986 30.1685 25.9005 29.9478C26.0892 30.0713 26.2905 30.1614 26.5044 30.2182Z" fill="#F1B70E"/>
<path opacity="0.998" fill-rule="evenodd" clip-rule="evenodd" d="M14.6946 29.2717C14.7393 29.2717 14.7841 29.2717 14.8288 29.2717C14.645 30.788 14.332 32.2753 13.8894 33.7335C13.7079 33.595 13.529 33.4598 13.3526 33.3279C12.8158 32.742 12.279 32.156 11.7422 31.5702C12.2163 31.5464 12.6189 31.3662 12.95 31.0294C13.3102 31.3727 13.6681 31.3727 14.0236 31.0294C14.1888 31.185 14.1888 31.3426 14.0236 31.5026C14.0907 31.5702 14.1578 31.6378 14.2249 31.7054C14.2811 30.8663 14.4377 30.0551 14.6946 29.2717Z" fill="#F1B70E"/>
<path fill-rule="evenodd" clip-rule="evenodd" d="M28.1145 31.8405C28.3829 32.0207 28.6066 32.2461 28.7855 32.5165C28.4603 32.5268 28.2143 32.3916 28.0474 32.1109C23.7142 32.3343 19.3752 32.4695 15.0301 32.5165C14.9854 32.4715 14.9406 32.4263 14.8959 32.3813C14.8689 32.8211 14.7571 33.2268 14.5604 33.5982C14.5581 33.8774 14.5134 34.1478 14.4262 34.4094C14.3815 34.4094 14.3367 34.4094 14.292 34.4094C14.3431 33.51 14.5221 32.6536 14.8288 31.8405C16.305 31.8405 17.7812 31.8405 19.2574 31.8405C19.2345 31.6618 19.2792 31.504 19.3916 31.3673C21.8353 31.3167 24.2733 31.2941 26.7054 31.2997C27.051 31.2443 27.2747 31.3795 27.3764 31.7053C27.4211 31.6603 27.4659 31.6151 27.5106 31.5701C27.6891 31.7164 27.8904 31.8066 28.1145 31.8405Z" fill="#F1B70E"/>
<path fill-rule="evenodd" clip-rule="evenodd" d="M28.7857 32.5167C29.3643 33.0097 29.9011 33.5505 30.396 34.1391C30.1784 34.4286 29.91 34.654 29.5908 34.8152C29.7417 34.5135 29.8088 34.1981 29.7921 33.8687C29.5476 33.932 29.2568 33.977 28.9199 34.0039C28.9368 33.7741 29.0263 33.5713 29.1883 33.3955C29.1436 33.3279 29.0987 33.2603 29.0541 33.1927C28.8671 33.377 28.6435 33.4896 28.3831 33.5307C28.2707 33.6674 28.226 33.8252 28.2489 34.0039C28.1147 34.0039 27.9805 34.0039 27.8463 34.0039C27.8463 33.8687 27.8463 33.7335 27.8463 33.5983C23.4002 33.47 18.9717 33.47 14.5605 33.5983C14.7573 33.2269 14.8691 32.8213 14.896 32.3815C14.9407 32.4265 14.9856 32.4717 15.0302 32.5167C19.3753 32.4696 23.7144 32.3344 28.0476 32.1111C28.2145 32.3918 28.4605 32.527 28.7857 32.5167Z" fill="#F1B70E"/>
<path opacity="0.898" fill-rule="evenodd" clip-rule="evenodd" d="M10.9374 12.1008C10.669 12.3262 10.4006 12.5515 10.1322 12.7769C9.20557 13.3104 8.35564 13.9414 7.58245 14.6697C6.39192 15.382 5.27359 16.1932 4.22748 17.1034C3.19467 17.7587 2.21054 18.4798 1.2751 19.2666C0.97127 19.4128 0.680505 19.5932 0.402802 19.8075C0.313336 19.9427 0.313336 20.0779 0.402802 20.2131C1.30218 21.1418 2.2192 22.0432 3.15388 22.9172C3.82488 23.6834 4.5406 24.4044 5.30107 25.0804C5.56947 25.441 5.8826 25.7564 6.24046 26.0268C6.50886 26.3874 6.82199 26.7029 7.17986 26.9733C8.65605 28.5507 10.177 30.083 11.7426 31.5702C12.2794 32.1561 12.8162 32.742 13.353 33.3279C13.3977 33.5081 13.4425 33.6885 13.4872 33.8687C8.96917 29.3619 4.45115 24.855 -0.0668945 20.3483C-0.0668945 20.0779 -0.0668945 19.8075 -0.0668945 19.5371C3.32889 17.1047 6.72861 14.6711 10.1322 12.236C10.4006 12.191 10.669 12.1459 10.9374 12.1008Z" fill="#F6FDFE"/>
<path fill-rule="evenodd" clip-rule="evenodd" d="M29.5908 34.8151C29.2306 35.044 28.8727 35.2694 28.5172 35.4911C28.4267 35.285 28.2925 35.1047 28.1146 34.9503C28.8281 34.7687 28.8281 34.5883 28.1146 34.4095C27.9156 34.6643 27.6472 34.7995 27.3094 34.8151C23.1567 34.5755 18.9966 34.4627 14.8289 34.4771C14.7145 34.2434 14.5803 34.2209 14.4263 34.4095C14.5135 34.1478 14.5582 33.8774 14.5605 33.5982C18.9716 33.4699 23.4002 33.4699 27.8462 33.5982C27.8462 33.7334 27.8462 33.8686 27.8462 34.0039C27.9804 34.0039 28.1146 34.0039 28.2488 34.0039C28.226 33.8251 28.2707 33.6673 28.383 33.5306C28.6435 33.4895 28.867 33.3769 29.054 33.1926C29.0987 33.2602 29.1435 33.3278 29.1882 33.3954C29.0262 33.5712 28.9367 33.774 28.9198 34.0039C29.2568 33.9769 29.5476 33.9319 29.7921 33.8686C29.8087 34.198 29.7416 34.5134 29.5908 34.8151Z" fill="#F1B70E"/>
<path fill-rule="evenodd" clip-rule="evenodd" d="M28.5171 35.4912C28.2004 35.8093 27.8425 36.0797 27.4435 36.3024C27.4435 36.1672 27.4435 36.032 27.4435 35.8968C27.2284 35.9222 27.0494 35.8546 26.9067 35.694C22.9703 35.649 19.0337 35.6038 15.0972 35.5588C14.8354 35.2796 14.6117 35.3022 14.4262 35.6264C14.2999 35.2715 14.1435 35.2715 13.9565 35.6264C13.9308 35.9072 13.8637 36.1776 13.7552 36.4376C13.3102 36.665 12.9523 36.9805 12.6816 37.384C13.1737 36.3926 13.6657 35.401 14.1578 34.4095C14.2025 34.4095 14.2473 34.4095 14.292 34.4095C14.3367 34.4095 14.3815 34.4095 14.4262 34.4095C14.5803 34.2209 14.7145 34.2435 14.8288 34.4772C18.9965 34.4628 23.1567 34.5756 27.3093 34.8152C27.6471 34.7996 27.9155 34.6644 28.1145 34.4095C28.8281 34.5884 28.8281 34.7688 28.1145 34.9504C28.2925 35.1048 28.4267 35.2851 28.5171 35.4912Z" fill="#F1B70E"/>
<path fill-rule="evenodd" clip-rule="evenodd" d="M27.4436 36.3024C26.5283 36.9665 25.589 37.5973 24.6254 38.1952C24.6254 38.06 24.6254 37.9248 24.6254 37.7896C24.8043 37.7896 24.9833 37.7896 25.1622 37.7896C25.1407 37.5599 25.163 37.3345 25.2293 37.1136C25.4113 37.2326 25.6126 37.2777 25.8332 37.2488C25.8489 36.9805 25.7594 36.7553 25.5648 36.5728C25.4459 36.6843 25.4012 36.8195 25.4306 36.9784C25.2517 36.9784 25.0727 36.9784 24.8938 36.9784C24.8938 36.8432 24.8938 36.708 24.8938 36.5728C21.5879 36.704 18.2776 36.7492 14.9631 36.708C14.9631 36.3474 14.9631 35.9869 14.9631 35.6263C14.7842 35.6263 14.6052 35.6263 14.4263 35.6263C14.6117 35.3021 14.8354 35.2795 15.0973 35.5587C19.0337 35.6038 22.9703 35.6489 26.9068 35.6939C27.0494 35.8546 27.2285 35.9222 27.4436 35.8967C27.4436 36.0319 27.4436 36.1672 27.4436 36.3024Z" fill="#F1B70E"/>
<path opacity="0.794" fill-rule="evenodd" clip-rule="evenodd" d="M18.1839 21.7002C18.3416 21.6706 18.4758 21.7156 18.5865 21.8354C18.9388 22.2344 19.3191 22.5949 19.7272 22.9171C19.7808 22.8862 19.8031 22.8411 19.7943 22.7818C23.5072 26.4774 27.22 30.173 30.9329 33.8686C30.9329 34.094 30.9329 34.3192 30.9329 34.5446C26.5043 37.6093 22.0757 40.6738 17.6471 43.7385C17.7764 43.6218 17.7764 43.5316 17.6471 43.4681C17.4813 43.5689 17.3023 43.614 17.1104 43.6033C17.3341 43.423 17.5576 43.2427 17.7813 43.0625C18.3973 42.7566 18.9341 42.351 19.3917 41.8456C19.992 41.5205 20.5735 41.16 21.1363 40.764C21.5836 40.4486 22.031 40.133 22.4783 39.8176C22.6624 39.6807 22.8413 39.5455 23.0151 39.4119C23.6051 39.0706 24.1419 38.6649 24.6255 38.1951C25.5891 37.5972 26.5284 36.9664 27.4437 36.3023C27.8427 36.0796 28.2006 35.8092 28.5173 35.491C28.8728 35.2693 29.2307 35.0439 29.5909 34.815C29.91 34.6538 30.1784 34.4285 30.3961 34.139C29.9011 33.5503 29.3643 33.0095 28.7857 32.5165C28.6068 32.2461 28.3831 32.0207 28.1147 31.8405C27.6226 31.2547 27.0858 30.7139 26.5043 30.2181C26.2359 29.8575 25.9228 29.5421 25.5649 29.2716C25.0281 28.6406 24.4466 28.0548 23.8203 27.514C23.6861 27.2886 23.5072 27.1084 23.2835 26.9732C22.6125 26.207 21.8968 25.4859 21.1363 24.8099C20.1522 23.7733 19.168 22.7368 18.1839 21.7002Z" fill="#F4FCFD"/>
<path fill-rule="evenodd" clip-rule="evenodd" d="M14.4262 35.6263C14.6051 35.6263 14.7842 35.6263 14.963 35.6263C14.963 35.9869 14.963 36.3473 14.963 36.7079C18.2776 36.7492 21.5879 36.704 24.8938 36.5727C24.8938 36.7079 24.8938 36.8431 24.8938 36.9783C25.0727 36.9783 25.2517 36.9783 25.4306 36.9783C25.4012 36.8195 25.4459 36.6843 25.5648 36.5727C25.7594 36.7552 25.8489 36.9805 25.8332 37.2487C25.6126 37.2777 25.4113 37.2325 25.2293 37.1135C25.163 37.3345 25.1407 37.5598 25.1622 37.7896C24.9833 37.7896 24.8043 37.7896 24.6254 37.7896C24.6254 37.9248 24.6254 38.06 24.6254 38.1952C24.1417 38.665 23.6049 39.0706 23.015 39.412C23.015 39.2768 23.015 39.1416 23.015 39.0064C23.1492 39.0064 23.2834 39.0064 23.4176 39.0064C23.3976 38.8642 23.4199 38.729 23.4847 38.6008C23.581 38.7294 23.6928 38.7518 23.8202 38.6684C23.6139 38.5183 23.5246 38.3155 23.5518 38.06C23.8007 38.0908 23.9125 38.0006 23.8873 37.7896C20.6181 37.7825 17.3302 37.7825 14.0237 37.7896C14.0683 37.3839 13.8895 37.2037 13.4869 37.2487C13.5169 37.7916 13.3604 37.8816 13.0172 37.5191C12.6696 37.6796 12.6025 37.9275 12.8159 38.2628C12.9894 38.329 13.1683 38.3516 13.3527 38.3304C13.3527 38.5106 13.3527 38.691 13.3527 38.8712C12.8468 38.9337 12.3548 38.9337 11.8765 38.8712C12.1108 38.3538 12.3792 37.8581 12.6817 37.3839C12.9523 36.9804 13.3102 36.6649 13.7553 36.4375C13.8637 36.1775 13.9308 35.9071 13.9566 35.6263C14.1435 35.2714 14.3 35.2714 14.4262 35.6263Z" fill="#F1B70E"/>
<path fill-rule="evenodd" clip-rule="evenodd" d="M23.0152 39.412C22.8414 39.5455 22.6625 39.6807 22.4784 39.8176C22.4278 39.5799 22.3383 39.3545 22.21 39.1415C19.2622 38.9163 16.3098 38.8261 13.3529 38.8711C13.3529 38.6909 13.3529 38.5106 13.3529 38.3303C13.1685 38.3516 12.9896 38.329 12.8161 38.2627C12.6027 37.9274 12.6698 37.6796 13.0174 37.5191C13.3606 37.8816 13.5171 37.7915 13.4871 37.2487C13.8896 37.2037 14.0685 37.3839 14.0238 37.7895C17.3304 37.7825 20.6183 37.7825 23.8875 37.7895C23.9127 38.0006 23.8009 38.0907 23.552 38.0599C23.5247 38.3155 23.6141 38.5183 23.8204 38.6683C23.693 38.7518 23.5812 38.7293 23.4849 38.6007C23.4201 38.7289 23.3978 38.8641 23.4178 39.0063C23.2836 39.0063 23.1494 39.0063 23.0152 39.0063C23.0152 39.1415 23.0152 39.2768 23.0152 39.412Z" fill="#F1B70E"/>
<path fill-rule="evenodd" clip-rule="evenodd" d="M13.3528 38.8711C16.3097 38.8261 19.2621 38.9163 22.2099 39.1415C22.3382 39.3545 22.4277 39.5798 22.4783 39.8175C22.031 40.133 21.5836 40.4485 21.1363 40.764C21.0468 40.4936 20.9574 40.2231 20.8679 39.9527C18.0908 39.9107 15.3174 39.9559 12.5476 40.0879C12.353 39.9825 12.1517 39.8924 11.9437 39.8175C11.6835 39.8789 11.4375 39.9691 11.2056 40.0879C11.4633 39.7041 11.6869 39.2985 11.8766 38.8711C12.3548 38.9336 12.8469 38.9336 13.3528 38.8711Z" fill="#F1B70E"/>
<path fill-rule="evenodd" clip-rule="evenodd" d="M21.1364 40.7638C20.5736 41.1598 19.9921 41.5203 19.3918 41.8454C19.3918 41.7102 19.3918 41.575 19.3918 41.4398C19.5902 41.4753 19.769 41.4302 19.9286 41.3046C19.8582 41.2111 19.7686 41.1435 19.6602 41.1018C16.7924 41.0576 13.9518 41.035 11.1386 41.0342C10.9415 41.2355 10.7402 41.4159 10.5347 41.575C10.7219 41.0626 10.9455 40.5668 11.2057 40.0878C11.4376 39.9689 11.6836 39.8788 11.9438 39.8174C12.1518 39.8923 12.3531 39.9823 12.5477 40.0878C15.3175 39.9557 18.0909 39.9105 20.868 39.9526C20.9575 40.223 21.0469 40.4934 21.1364 40.7638Z" fill="#F1B70E"/>
<path fill-rule="evenodd" clip-rule="evenodd" d="M19.3916 41.8459C18.934 42.3513 18.3972 42.7569 17.7812 43.0627C17.804 42.884 17.7594 42.7262 17.647 42.5895C17.8562 42.457 18.08 42.3444 18.318 42.2515C18.1614 42.2065 18.0049 42.1613 17.8483 42.1163C16.1765 42.1206 14.499 42.1432 12.8159 42.1839C12.7036 42.3206 12.6588 42.4784 12.6817 42.6571C12.3429 42.6667 12.0745 42.5315 11.8765 42.2515C11.787 42.3417 11.6975 42.4317 11.6081 42.5219C11.4601 42.305 11.2588 42.1698 11.0042 42.1163C10.7237 42.4571 10.4777 42.8176 10.2661 43.1979C10.0871 43.1979 9.9082 43.1979 9.72928 43.1979C9.63981 43.5585 9.55035 43.919 9.46088 44.2796C9.14585 44.5536 8.96692 44.9142 8.92408 45.3612C8.78988 45.3612 8.65568 45.3612 8.52148 45.3612C9.12467 44.0553 9.79566 42.7934 10.5345 41.5755C10.74 41.4163 10.9413 41.236 11.1384 41.0347C13.9516 41.0355 16.7922 41.0581 19.66 41.1023C19.7684 41.1439 19.858 41.2115 19.9284 41.3051C19.7688 41.4307 19.59 41.4757 19.3916 41.4403C19.3916 41.5755 19.3916 41.7107 19.3916 41.8459Z" fill="#F1B70E"/>
<path fill-rule="evenodd" clip-rule="evenodd" d="M17.7813 43.0626C17.5576 43.2429 17.334 43.4232 17.1103 43.6035C16.5296 44.0765 15.9033 44.4821 15.2315 44.8203C15.2543 44.6416 15.2096 44.4838 15.0973 44.3471C15.2246 44.2637 15.3364 44.2861 15.4328 44.4147C15.4985 44.2399 15.5209 44.0595 15.4999 43.8739C15.7916 43.8171 16.06 43.8171 16.3051 43.8739C16.4523 43.5987 16.6759 43.4185 16.9761 43.333C16.6626 43.1692 16.3718 43.2142 16.1038 43.4683C15.3983 43.3024 14.6826 43.2122 13.9566 43.1978C12.7458 43.2402 11.5156 43.2402 10.2661 43.1978C10.4777 42.8175 10.7238 42.4571 11.0042 42.1162C11.2588 42.1698 11.4601 42.305 11.6081 42.5218C11.6976 42.4316 11.787 42.3416 11.8765 42.2514C12.0746 42.5314 12.343 42.6666 12.6817 42.657C12.6589 42.4783 12.7036 42.3205 12.8159 42.1838C14.499 42.1431 16.1765 42.1205 17.8484 42.1162C18.005 42.1612 18.1614 42.2064 18.3181 42.2514C18.08 42.3443 17.8563 42.4569 17.6471 42.5894C17.7594 42.7261 17.8041 42.8839 17.7813 43.0626Z" fill="#F1B70E"/>
<path fill-rule="evenodd" clip-rule="evenodd" d="M10.2661 43.1978C11.5156 43.2401 12.7458 43.2401 13.9566 43.1978C14.6826 43.2121 15.3983 43.3023 16.1038 43.4682C16.3718 43.2141 16.6626 43.1691 16.9761 43.333C16.6759 43.4184 16.4523 43.5986 16.3051 43.8738C16.06 43.817 15.7916 43.817 15.4999 43.8738C15.521 44.0594 15.4986 44.2398 15.4328 44.4146C15.3364 44.286 15.2247 44.2636 15.0973 44.347C15.2096 44.4837 15.2543 44.6415 15.2315 44.8202C14.4788 45.4707 13.6736 46.0565 12.8159 46.5779C12.9045 46.3285 13.0387 46.1033 13.2185 45.9018C13.2146 45.6951 13.1252 45.5373 12.9501 45.4286C13.1829 45.3406 13.4066 45.363 13.6211 45.4962C13.7987 45.2012 14.0224 45.111 14.2921 45.2258C14.411 45.1143 14.4557 44.9791 14.4263 44.8202C14.1289 44.8506 13.9052 44.738 13.7553 44.4822C12.6619 44.2614 11.5659 44.239 10.4674 44.4146C10.2842 44.4611 10.1277 44.5513 9.99773 44.685C9.85421 44.4944 9.67528 44.3592 9.46094 44.2794C9.55041 43.9188 9.63987 43.5583 9.72934 43.1978C9.90826 43.1978 10.0872 43.1978 10.2661 43.1978Z" fill="#F1B70E"/>
<path opacity="0.8" fill-rule="evenodd" clip-rule="evenodd" d="M13.4868 33.8686C13.9498 33.768 14.1734 33.9483 14.1578 34.4094C13.6657 35.4008 13.1737 36.3924 12.6816 37.3839C12.3791 37.858 12.1107 38.3537 11.8764 38.8711C11.6868 39.2985 11.4631 39.7041 11.2054 40.088C10.9453 40.567 10.7216 41.0628 10.5344 41.5752C9.79561 42.7931 9.12461 44.055 8.52142 45.3609C7.98482 46.352 7.44802 47.3435 6.91103 48.3354C6.50665 49.1503 6.10405 49.9615 5.70324 50.7691C5.46621 51.1325 5.24254 51.5155 5.03225 51.9183C5.12172 52.0085 5.21117 52.0085 5.30064 51.9183C5.53408 51.7132 5.75775 51.5104 5.97164 51.3099C7.07935 50.6454 8.15294 49.9242 9.19242 49.1466C10.4288 48.3219 11.6366 47.4656 12.8158 46.5778C13.6735 46.0564 14.4787 45.4706 15.2314 44.8201C15.9032 44.482 16.5295 44.0763 17.1102 43.6033C17.3021 43.6139 17.4811 43.5689 17.647 43.4681C17.7762 43.5316 17.7762 43.6218 17.647 43.7385C13.3526 46.8031 9.05822 49.8677 4.76385 52.9323C4.62965 52.9323 4.49545 52.9323 4.36125 52.9323C4.32047 52.8445 4.27572 52.7543 4.22705 52.6619C7.4031 46.5327 10.5791 40.4034 13.7552 34.2742C13.6622 34.1365 13.5728 34.0013 13.4868 33.8686Z" fill="#F6FAFD"/>
<path fill-rule="evenodd" clip-rule="evenodd" d="M9.19281 49.1468C8.15333 49.9244 7.07974 50.6455 5.97203 51.3101C5.74705 51.2177 5.65758 51.0374 5.70363 50.7693C6.10445 49.9617 6.50704 49.1505 6.91143 48.3356C7.37023 48.2623 7.5939 47.9919 7.58242 47.5244C7.94305 47.5022 8.30092 47.5248 8.65601 47.592C8.59463 47.6479 8.5499 47.7155 8.52182 47.7948C9.11326 47.8793 9.6948 47.9919 10.2664 48.1328C9.92017 48.3718 9.5623 48.5746 9.19281 48.7412C9.19281 48.8764 9.19281 49.0116 9.19281 49.1468Z" fill="#F1B70E"/>
<path fill-rule="evenodd" clip-rule="evenodd" d="M9.46092 44.2793C9.67526 44.3591 9.85419 44.4943 9.99771 44.6849C10.1276 44.5512 10.2842 44.461 10.4674 44.4145C11.5659 44.2389 12.6618 44.2613 13.7553 44.4821C13.9052 44.7379 14.1289 44.8505 14.4263 44.8201C14.4557 44.979 14.411 45.1142 14.2921 45.2257C14.0223 45.1109 13.7986 45.2011 13.6211 45.4961C13.4066 45.363 13.1829 45.3405 12.9501 45.4285C13.1252 45.5372 13.2146 45.695 13.2185 45.9017C13.0387 46.1032 12.9045 46.3284 12.8159 46.5778C11.6366 47.4657 10.4289 48.3219 9.19252 49.1466C9.19252 49.0114 9.19252 48.8762 9.19252 48.741C9.56201 48.5745 9.91988 48.3717 10.2661 48.1326C9.6945 47.9917 9.11296 47.8791 8.52152 47.7946C8.54961 47.7154 8.59434 47.6478 8.65572 47.5918C8.30063 47.5246 7.94276 47.502 7.58213 47.5242C7.5936 47.9917 7.36993 48.2621 6.91113 48.3354C7.44812 47.3436 7.98491 46.352 8.52152 45.3609C8.65572 45.3609 8.78992 45.3609 8.92412 45.3609C8.96696 44.9139 9.14588 44.5534 9.46092 44.2793Z" fill="#F1B70E"/>
<path fill-rule="evenodd" clip-rule="evenodd" d="M5.70322 50.769C5.65716 51.0372 5.74664 51.2175 5.97162 51.3099C5.75773 51.5104 5.53406 51.7132 5.30062 51.9183C5.21115 52.0085 5.1217 52.0085 5.03223 51.9183C5.24252 51.5155 5.46619 51.1325 5.70322 50.769Z" fill="#F1B70E"/>
</g>
<defs>
<clipPath id="clip0_186_343">
<rect width="31" height="53" fill="white"/>
</clipPath>
</defs>
</svg>
