<svg width="280" height="280" viewBox="0 0 280 280" fill="none" xmlns="http://www.w3.org/2000/svg">
<path fill-rule="evenodd" clip-rule="evenodd" d="M277.411 117.102C277.279 120.591 277.722 123.914 278.74 127.071C280.025 142.009 279.139 156.853 276.081 171.603C273.8 179.886 271.031 188.084 267.773 196.195C244.831 243.958 207.057 271.541 154.45 278.944C97.1835 282.712 52.7628 260.888 21.1872 213.476C-8.41892 160.426 -6.5357 108.583 26.8367 57.9476C34.6344 48.265 43.2749 39.292 52.7582 31.0292C93.7679 0.0825373 138.743 -7.22864 187.683 9.09568C237.23 28.7559 267.14 64.7576 277.411 117.102Z" fill="#363636"/>
<path fill-rule="evenodd" clip-rule="evenodd" d="M190.341 57.2813C192.847 60.1201 195.505 62.8897 198.317 65.5895C193.448 65.9218 188.574 66.0322 183.695 65.9218C183.695 67.0298 183.695 68.1371 183.695 69.2451C189.902 69.1348 196.106 69.2451 202.305 69.5774C204.213 71.374 205.986 73.2569 207.622 75.227C191.892 75.227 176.162 75.227 160.432 75.227C160.243 76.4998 160.465 77.6071 161.097 78.5502C177.85 79.0055 194.688 79.4482 211.61 79.8795C212.94 80.9875 214.269 82.0948 215.598 83.2028C201.641 83.6461 187.683 84.0888 173.725 84.5321C173.725 85.4181 173.725 86.3047 173.725 87.1907C189.013 87.0797 204.3 87.1907 219.586 87.523C222.85 90.4515 225.731 93.6644 228.227 97.1605C205.628 97.6038 183.03 98.0465 160.432 98.4898C160.652 118.765 160.431 138.926 159.767 158.973C146.276 145.814 132.872 132.521 119.556 119.094C119.224 112.229 119.113 105.362 119.224 98.4898C111.467 98.6008 103.712 98.4898 95.9609 98.1575C82.9756 84.8405 70.1259 71.4371 57.4111 57.946C101.609 57.282 145.919 57.0607 190.341 57.2813Z" fill="#92C642"/>
<path fill-rule="evenodd" clip-rule="evenodd" d="M207.622 75.2256C192.228 75.8889 176.719 76.1102 161.096 75.8902C161.096 76.7762 161.096 77.6629 161.096 78.5488C160.464 77.6057 160.243 76.4984 160.431 75.2256C176.162 75.2256 191.891 75.2256 207.622 75.2256Z" fill="#404040"/>
<path fill-rule="evenodd" clip-rule="evenodd" d="M161.096 78.5494C177.714 78.4384 194.33 78.5494 210.945 78.8818C211.315 79.1363 211.536 79.4687 211.61 79.8788C194.687 79.4474 177.849 79.0047 161.096 78.5494Z" fill="#E0E0E0"/>
<path fill-rule="evenodd" clip-rule="evenodd" d="M215.597 83.209C215.958 83.2489 216.179 83.4702 216.261 83.8736C202.089 84.5383 187.91 84.7596 173.724 84.5383C187.681 84.095 201.639 83.6523 215.597 83.209Z" fill="#818181"/>
<path fill-rule="evenodd" clip-rule="evenodd" d="M120.552 139.031C134.067 152.103 147.36 165.396 160.431 178.91C160.652 200.293 160.43 221.562 159.767 242.717C146.252 229.645 132.959 216.352 119.888 202.838C119.667 181.455 119.889 160.186 120.552 139.031Z" fill="#92C642"/>
</svg>
