<svg width="512" height="512" viewBox="0 0 512 512" fill="none" xmlns="http://www.w3.org/2000/svg">
<g clip-path="url(#clip0_101_12)">
<path d="M237.25 0H267.75V0.25L278.5 2L286 3.75L293.25 6L300.25 8.75L306.75 11.75L312.75 15L319 19L323.5 22.25L329 26.75L332 29.5L334 31.25L338 35.25L339.75 37.25L342 39.75L344.75 43.25L348.25 48L350.75 51.75L353 55.5L355.5 60L358.25 65.5L360.25 70.25L362.75 77.25L365 85.25L366.25 91.25L367.25 97.75L367.75 102.5L368 106.75V157.5H370.5L375.25 158.5L380.5 160.5L384 162.5L387 164.75L390 167.5L392 169.75L394.25 173L396.5 177.25L398 181.5L398.75 185.25L399 187.5V192.75L398.25 197.5L397 201.75L395 206L392 210.5L389.25 213.5L386.5 216L382.75 218.5L378 220.75L374 222L370 222.75L366.25 223L363 235.75L358.25 254L354.25 269.25L350.75 283L347.25 296.25L345.5 303L344 306L342 307.75L339 308.75L319.25 309L315.5 319L312.25 327.5L309.75 334L305.75 344.5L304.25 347.5L303 349L298.75 352.25L293.25 355.75L292 356.5L291.25 361.5L291 367.75L291.25 374L291.75 377.5L325.75 385.75L382.5 399.5L386.25 400.5L386.5 340.75L387 338.25L388.75 335.75L391.75 332.25L394 329.5L396.75 326.25L399 323.5L399.5 322.75H400L400.5 321.75L403.25 318.5L405.5 315.75L407.5 313.5L407.75 312L406 307.75L405.25 304.5L405 300.25L405.5 296.75L406.75 292.75L408.5 289.25L410.75 286.25L413.25 283.75L416.5 281.5L420.25 279.75L424.5 278.75H431.25L435.25 279.75L439.5 281.75L442.5 284L444 285.25L446.25 288L448.25 291.25L449.5 294.25L450.5 299V303.25L449.75 307.25L448.5 310.5L447 313.5L444.75 316.25L444.25 317H443.75L443.5 317.75L440.5 320L437.5 321.75L433 323.25L430.75 323.75H424.75L421.25 323L419.75 322.75L417 326L414.75 328.75L412 332L409.75 334.75L406.5 338.5L404.25 341.25L402.25 343.75L402 352.5V404.5L402.25 405L406.25 406.75L410 408.75L413.5 411L416.5 413.25L419.25 415.5L421.25 417.25V417.75L422.25 418.25L425.25 421.5L428 425L431 429.5L434 435L436.5 441.25L438.25 447.5L439.25 453.75L439.5 456.25V476L438.5 478.5L436.5 480.75L434.5 481.75L433.5 482H430.25L428.25 481.25L426.25 479.75L425 478L424.25 475.75L424 457.25L423.25 451.75L422 447L420.25 442.25L417.25 436.5L414.5 432.75L411.5 429.25L408.25 426.25L403.75 423L398.75 420.25L393.5 418.25L388 416.75L369.25 412.25L310.5 398L292 393.5L291.25 396.25L289.75 400L287.5 404L285 407.5L282 410.75L279.25 413.25L274.75 416.25L270.75 418.25L266.75 419.75L262.75 420.75L259 421.25H252.25L247.5 420.5L242.5 419L237.25 416.5L234.25 414.5L232 412.75L229 410L226.5 407.25L224 403.75L221.5 399L219.75 394V393.5L196 399.25L190 400.75L188.25 401H186.25L183.75 400L181.5 398L180.25 395.5L180 394.5V392.5L180.75 390L182.25 388L184.25 386.5L188.25 385.25L212.75 379.25L219 377.75L219.75 377.5L220.25 374.75L220.5 372V363.75L220 358L219.5 356L215.75 353.75L212.5 351.5L209.25 349L205 345.5L202.25 343.25L198.5 340L195.75 337.5L193.75 335.75L191 333.25L189 331.5L186.75 329.25L184.75 327.5L178 320.75L176.25 318.75L174 316.5L171.75 313.75L168.75 310.5L166 307L163 303.25L159.75 298.75L156.25 293.5L154 289.75L151.5 285.25L148.25 278.5L145.75 271.75L144 265L143.25 260.25L143 257.75V247.5L143.5 238.25L144 224L144.25 223L139 222.25L135 221L131.25 219.5L126.75 216.75L123 213.5L120.5 210.75L118 207.25L115.75 203L114 197.75L113.25 193.25V187L114 182.75L115.25 178.5L117.25 174.25L118.75 172V169.5L116.75 156.75L115.25 144L114.5 134.5L114 124V113.75L114.5 104.25L115.25 96.75L116.75 87.75L118.25 81.25L120.75 73.75L122.75 69L125.5 63.75L128.5 59.5L130.75 56.75L134.75 52.75L139 49.75L142.5 47.75L146.25 46.25L149.5 45.25L156 44L157.25 42.75L160.5 36.75L163.5 32.5L166.75 28.5L172.5 22.75L176 20L180.25 17L183.5 15L188 12.5L194.5 9.5L201.25 7L208 5L215.25 3.25L223.75 1.75L231.5 0.75L236.25 0.25L237.25 0ZM246.75 15L235.25 15.75L226.5 16.75L218 18.25L210 20.25L201.75 23L197 25L192.25 27.5L187.75 30.25L184.75 32.5L181.25 35.5L177.5 39.25L174.5 43.25L171.75 48L169.75 51.75L167.75 54.25L165.5 56.25L161.5 58.25L157.75 59.25L152.75 60.25L149.25 61.5L146.25 63.25L143.5 65.5L140.75 68.5L138 72.75L136 76.75L133.75 82.75L132 89.25L130.75 96.25L130 102.25L129.5 110V128.75L130.25 140.25L131.5 151.25L132.75 160L134 159.75L137.75 158.5L141.75 157.75L144 157.5L144.5 143L145.25 134L146.5 127.25L148.25 121L150.25 116L152.25 112L154.25 108.5L156.75 105L159.25 101.75L162.25 98.5L166.5 94.25L170.5 91.25L174.5 88.75L178.5 86.5L184.25 83.75L191.5 81L198 79L206 77L213.25 75.5L223.25 74L232 73L242.25 72.25L248.5 71.75V15H246.75ZM297.5 24.5V107.5H318L318.25 83.75L318.75 81.25L320 79L322 77.25L323.75 76.5L346 76.25L344.75 72.75L341.75 66.5L338.25 60.5L334.75 55.25L332.25 52L330 49.25L327.75 46.75L326 44.75L322.25 41L320.25 39.25L316.75 36.25L312.75 33.25L307.5 29.75L303.75 27.5L298 24.5H297.5ZM263.75 15.5L263.5 116L262.75 118.5L261 120.75L259.5 121.75L257.25 122.5H255L252.75 121.75L251.25 120.75L249.75 119L248.75 116.25L248.5 87H245.75L232.5 88L223.75 89L214.5 90.5L205.5 92.5L198.5 94.5L192.75 96.5L186.5 99.25L181.5 102L177 105.25L173.25 108.75L170.25 112L167 116.5L164.5 121L163 124.5L161.5 129.5L160.75 133L160 138L159.5 146V209L159.25 223.75L158.75 240.75L158.25 249V257L159.25 263.25L161 269.25L163 274L165.5 279.25L168.5 284.5L170.5 287.5L173.25 291.5L176.5 295.75L179.75 299.75L182.75 303.25L185.25 306L187 308L188.75 309.75L189 310.25H189.5L190 311.25L196.5 317.75H197V318.25L199 320L203.25 324L205.75 326.25L208.5 328.5L211.5 331.25L217 335.75L220.75 338.75L224.5 341.25L228.75 343.75L234.25 346.25L240.25 348.25L245.75 349.5L248.5 349.75V299L241.75 297L237.25 295L234 293.25L229.75 290.25L226.5 287.25L224.75 285.5L222 282L220 278.75L219.25 276.75V274.5L220.25 271.75L221 270.75V270.25H221.5V269.75L222.75 269.25L225 268.25H228.25L230.75 269.25L232.5 270.75L235.5 275L237 276.75L239 278.5L242.25 280.75L246.25 282.75L247.5 283.25H248.5V197L248.75 148L249.75 145.75L250.75 144.25L253 142.75L254.5 142.25H257.5L260 143.25L262 145L263.25 147.25L263.5 148.5L263.75 349.75L266.25 349.5L271.75 348.25L277.75 346.25L283.25 343.75L288.5 340.75L291.5 338.5L292.5 336.5L296.25 326.5L296 326H286L282.75 325.5L280.5 324L279 322.25L278.25 320V262L279.75 259L281.5 257.5L283.75 256.5L341.5 256.25L342 255.75L348.5 230.5L351.25 220L352.75 213.75V108L352.25 101L351.25 93.75L350.75 91.5L350.25 91.25L333.5 91.5L333.25 114.75L332.75 117.75L331.25 120.25L329.25 121.75L326.5 122.5H288.75L286 121.5L284.25 120L282.75 117L282.5 115.5L282.25 18.75L280.25 18L273 16.5L266 15.5H263.75ZM368 172.5V207.5L370.25 207.25L374.25 205.75L377.25 203.75L378.5 202.75V202.25H379V201.75H379.5L381.25 199.25L382.75 196.25L383.75 192V188.5L383 184.75L381 180.5L378.75 177.75L376.75 176L373.25 174L368.75 172.5H368ZM144 172.5L140.25 173.5L137.75 174.5L135 176.5L133 178.25L131 181L129.25 184.75L128.5 188.25V192L129.25 195.5L131.25 199.5L133.25 202.25L136.25 204.75L140.25 206.75L143 207.5H144.25V172.5H144ZM293.25 271.5V310.75L295.25 311H300.25L302.25 310.75L305 303.5L307.5 297.25L309.5 295L311.5 294L312.5 293.75L332 293.5L333.25 289.5L336 278.75L337.75 272V271.5H293.25ZM426 294L423.75 295L422 296.5L420.75 299L420.5 300V302.5L421.25 304.75L423.5 307.25L425.25 308.25L426.5 308.5H429.25L431.75 307.5L434 305.5L435 303L435.25 300.5L434.5 298L433.25 296L431 294.5L429.5 294H426ZM236 363L235.75 373.25L235 379.25L234.25 383L233.75 385L234 388L235 391.75L237 395.75L239.5 399L241.5 401L245.25 403.5L248 404.75L251.5 405.75L253.25 406H258.5L262 405.25L265.25 404L268 402.5L270.25 400.75L272 399.25L274 396.75L276 393.25L277.25 389.75L277.75 387.5V384.25L276.5 378.5L276 374.5L275.75 370.75V363L272.75 363.5L267.5 364.5L260.75 365.25H251L243 364.25L237 363H236Z" fill="#FE9900"/>
<path d="M81.25 278.75H88L92 279.75L94.75 281L97.75 282.75L101 285.5L103.75 289L105.75 293L106.75 296.25L107.25 299.5V302.5L106.75 306.25L105.5 310L104.5 312L104.75 313.25L107 315.75L109 318.25L114.5 324.75L116.75 327.5L119.75 331L122.5 334.25L125 337.75L125.75 339.5L126 400.5L147.25 395.25L151.25 394.5L154 394.75L156 395.75L157.75 397.25L159.25 400.25L159.5 402.75L159 405L157.5 407.25L155.75 408.75L152.25 410L129.75 415.5L118.75 418.25L113.75 420.25L110 422.25L106 425L103.25 427.25L102.5 428H102V428.5H101.5V429H101L100.5 430L98 432.75L95.25 436.75L93.25 440.25L91.5 444L89.75 449.25L89 452.75L88.5 457L88.25 473.75L88 476.5L86.75 479L85.5 480.5L83 481.75L82 482H78.75L76.25 481L74.25 479L73.25 477L73 476L72.75 472.5V463L73 455.25L74 448.5L75.5 442.75L77.75 436.75L80 432L83.25 426.75L85.5 423.75L87.75 421L90.5 418L92.75 415.75L95.25 413.75L99.25 410.75L103.75 408L110 405L110.25 404.75V344L109.25 342.5L106.25 339L103.5 335.75L101.25 333L98.25 329.5L96 326.75L92.75 323L91.75 322.75L87.5 323.75H81.75L78.25 323L75 321.75L71.75 320L68.25 317L65.75 314L64 311L62.5 306.75L62 304.5V298.25L63 294L64.25 291L66.5 287.5L68.75 285L71 283L73.75 281.25L77.75 279.5L81.25 278.75ZM82.75 294L81 294.75L79.5 295.75L78 297.75L77.25 300V302.5L78 304.75L79.5 306.75L81.5 308L83.25 308.5H86L88.5 307.5L90.75 305.5L91.75 303.25L92 300.5L91.5 298.5L90.25 296.5L88.25 294.75L86.5 294H82.75Z" fill="#FE9900"/>
<path d="M20.75 448.25H24L27.75 448.75L31.75 450.25L34.25 451.5L37.25 453.75L40 456.5L41.75 459L43.75 463L44.75 466.5L45 468V473.75L44.25 477.25L44 479L46.75 481.25L50.25 484.25L53 486.5L56.5 489.5L59.25 491.75L62.5 494.5L65 496.5H154L156 495L162.5 489.5L165.25 487.25L168.5 484.5L171.25 482.25L175 479L180.5 474.5L182.75 473.25L183.75 473H187L189.25 474L191.25 475.75L192.5 477.75L193 479.75V481.75L191.75 484.75L189.75 487L187.25 489L183.75 492L181 494.25L177.5 497.25L174.75 499.5L171.25 502.5L168.5 504.75L166.5 506.5L163.75 508.75L161.25 510.75L159 512H60.25L57 510L50 504L47.25 501.75L43.75 498.75L41 496.5L34.5 491L33.5 490.75L29.5 492.5L25 493.5H19.75L16 492.75L11.75 491L8.75 489L5.75 486.25L3.75 483.75L1.5 479.75L0 475.5V466H0.5L0.75 464.25L2.5 460.25L4.25 457.25L7.25 454L10.25 451.75L14 449.75L17.25 448.75L20.75 448.25ZM21.75 463.5L19.5 464L17 465.75L15.75 467.75L15.25 469.5V472.5L16.25 475L17.75 476.75L20.25 478L21.25 478.25H23.75L26 477.5L28.5 475.25L29.5 473.25L29.75 472.5V469.5L28.75 467L27 465L24.75 463.75L23.5 463.5H21.75Z" fill="#FE9900"/>
<path d="M487.75 448.25H491.25L495.5 449L499.5 450.5L503.5 453L505.5 454.75L507.75 457.5L509.5 460.25L511 463.5L511.75 466L512 466.25V476H511.5L510.75 479L508.25 483.75L506.25 486.25L504.25 488.25L501.75 490L498 492L494.75 493L492.25 493.5H486.75L482.5 492.5L478.75 491L478 490.75L475.25 493L471.75 496L469 498.25L465.5 501.25L462.75 503.5L459.25 506.5L456.5 508.75L454 510.75L452.75 511.5H452V512H353L350.5 510.5L347.75 508.25L344.25 505.25L341.5 503L338 500L335.25 497.75L328.75 492.25L326 490L322.75 487.25L321 485.75L319.75 484L319 482V479.5L320 476.75L321 475.25H321.5V474.75L323.5 473.5L325 473H328.25L330.75 474L334.75 477.25L338.5 480.5L341.25 482.75L344.5 485.5L347.25 487.75L351 491L353.75 493.25L357 495.75V496.25L357.75 496.5H447L450.5 493.5L453.25 491.25L456.75 488.25L459.5 486L463 483L465.75 480.75L468 478.75L467 474.25V467.75L468 463.5L470 459.25L472 456.5L472.5 455.75H473L473.5 454.75H474L474.25 454L477.25 451.75L481.25 449.75L484.25 448.75L487.75 448.25ZM488.75 463.5L486.5 464L484.5 465.5L483 467.25L482.25 469.5V472.5L483.25 475L484.5 476.5L486.5 477.75L488.25 478.25H491L493.25 477.25L494.5 476.5V476L495.25 475.75L496.5 473.5L496.75 472.5V469.25L495.75 467L494 465L491.75 463.75L490.5 463.5H488.75Z" fill="#FE9900"/>
<path d="M254.25 437H257.5L259.75 438L261.75 439.75L263 441.75L263.5 443.5L263.75 468.25L267.75 470.25L270.5 472.25L273.5 475.25L276 479L277.5 482.75L278.25 486L278.5 487.75V491.5L277.75 495.5L276.5 498.75L275.25 501.25L273.25 504L271.5 506L268.5 508.25L265.5 510L261.5 511.5L260 512H250.5L250.25 511.5L245.5 509.75L242.75 508L240 505.75L237.5 503L235 498.75L233.75 495L233.25 492.75L233 489.25L233.5 485.25L234.5 481.75L236.5 477.75L238 475.5L240.25 473L242.25 471.25L245.5 469.25L248 468.5V445L248.5 442L249.5 440L251.25 438.25L253.25 437.25L254.25 437ZM254 482.25L251 483.75L249.5 485.5L248.5 488.25V491L249.5 493.5L250.5 494.75L252.75 496.25L254.25 496.75H257.25L259.75 495.75L262 493.75L263 491.5L263.25 488.75L262.5 486.25L261.5 484.75L259.5 483L257.5 482.25H254Z" fill="#FE9900"/>
<path d="M201.25 167.5H205.75L209.75 168.25L213.5 169.75L217 172L220 174.75L221.5 176.5L223.5 179.75L225 183.25L225.75 186.25L226 188.5V192L225.25 196L224 199.5L222.5 202.25L220.5 205L218 207.5L215.5 209.25L211.5 211.25L208.25 212.25L205.5 212.75H201L197.25 212L193.75 210.75L190 208.5L187 205.75L185 203.5L183 200.25L181.75 197.25L181 194.25L180.75 192.5V187.75L181.5 184L182.5 181L184.5 177.5L186.5 174.75H187L187.5 173.75L190.25 171.5L193.75 169.5L197 168.25L199 167.75L201.25 167.5ZM202 182.75L199.75 183.5L197.5 185.5L196.25 188L196 189.25V191.25L197 194L198.75 196L201 197.25L202.5 197.5H204.5L206.75 196.75L209 195L210.25 192.75L210.75 190.75L210.5 188L209.25 185.5L207.25 183.75L205.75 183L204.75 182.75H202Z" fill="#FE9900"/>
<path d="M304.75 167.5H309.75L313.5 168.25L317.25 169.75L320.75 172L323.75 174.75L326 177.5L328 181.25L329.25 185L329.75 188V192.25L328.75 197L327 201L325.25 203.75L322.5 206.75L320.75 208.25L317.5 210.25L314 211.75L309.5 212.75H304.75L301 212L297.5 210.75L293.75 208.5L290.5 205.5L287.75 202L285.75 197.75L284.75 194.25L284.5 192.5V188L285.25 184L286.75 180L289.25 176L293 172.25L296.5 170L300 168.5L302.75 167.75L304.75 167.5ZM305.75 182.75L303.5 183.5L301.25 185.5L300 188L299.75 189.25V191.25L300.5 193.5L302.25 195.75L304.25 197L306.5 197.5L309.25 197.25L311.25 196.25L313 194.75L314 193L314.5 189.75L314 187.5L313 185.5L311 183.75L308.75 182.75H305.75Z" fill="#FE9900"/>
<path d="M211.25 136.25H214.25L218 137.75L222.75 140.25L229.25 143.75L231.75 146L232.75 148L233 149V152L231.5 155L229.75 156.75L227.5 157.75L226.25 158H224.25L221.25 157L213.5 153L212.25 152.25L211 152L203 153.75L189.75 156.5L182 158H180L177.25 157L175.75 155.75L174.5 154L173.75 152V149L174.5 146.75L176.25 144.5L178.5 143.25L182.25 142.25L200.5 138.5L211.25 136.25Z" fill="#FE9900"/>
</g>
<defs>
<clipPath id="clip0_101_12">
<rect width="512" height="512" fill="white"/>
</clipPath>
</defs>
</svg>
