<svg width="512" height="512" viewBox="0 0 512 512" fill="none" xmlns="http://www.w3.org/2000/svg">
<path d="M189.75 42.5H194.25L198 43.25L201.75 44.75L205.25 47L208 49.5L210.5 53L212.25 56.5L213.25 60.5L213.5 63.25V85.25H344.25L347.75 86L351.75 87.75L354 89.25L356 90.75V91.25H356.5V91.75H357L359.5 95L361.5 99L362.5 102.25L362.75 103.5V109.5L361.75 113.5L360 117.5L357 121.5L354.5 123.75L350.75 126L347.5 127.25L343.5 128H300.25L299.75 130L296.75 139L293.5 148.25L289.5 158.5L285 169L281 177.75L278.5 183L276 187.75L273.25 193.25L270 199L267 204.5L265 207.75L262.5 212L260 216L256.5 221.5L250.75 230L247.75 234.25L245.25 237.75L239.25 245.75L236.5 249.25L233.25 253.25L232 255H231.5L231 256L228.25 259.25L226 262L223.25 265L221.25 267.5L221.5 268.75L224.5 271.75L226 273L227 274V274.5L228 275L245.5 292.5L247 293.75V294.25L248 294.75L259.5 306.25L261.5 308L264.5 311V311.5H265L267.25 314.25L269.25 317.5L270.5 320.5L271.25 323.75L271.5 327.25L271 331.25L269.75 335L268 338.5L265.75 341.25L264.5 342.5L262 344.5L258 346.5L254 347.75L252.25 348H247.5L243.75 347.25L239.75 345.5L236.5 343.25L235 342V341.5H234.5V341L233.5 340.5V340L232.5 339.5V339L231.5 338.5V338H231V337.5H230.5V337L229.5 336.5V336H229V335.5H228.5V335L227.5 334.5V334H227L225.5 332.25L225 332V331.5H224.5V331H224L222.5 329.25L222 329V328.5H221.5V328H221L219.5 326.25L219 326V325.5H218.5V325H218L216.5 323.25L215 322L213.5 320.25L212 319L210.5 317.25L209 316L207.5 314.25L206 313L204.5 311.25L194.5 301.25L194 301V300.5L193 300L192.5 299.25L191.5 299.5L134.5 356.5L133.25 358L131.25 359.75L130.25 361L128.25 362.75L127.25 364L125.25 365.75L124.25 367L122.5 368.5L121.25 370L119.75 371.25L118.25 373L116.75 374.25L115.25 376L113.75 377.25L112.25 379L111.25 380H110.75L110.25 381H109.75L109.25 382H108.75L108.25 383L101.25 390H100.75V390.5L96.75 393.5L93.5 395L90.25 396L87.75 396.5H83L79.5 395.75L76.25 394.5L73.5 393L70.75 390.75L69 389L66.5 385.5L65 382.25L64 378.5L63.75 376.5V374L64.5 369.25L65.75 366L67.5 363L69.75 360.25L85.5 344.5H86L86.25 343.75L88.25 342L103.5 326.75H104L104.5 325.75H105L105.5 324.75H106V324.25H106.5V323.75H107V323.25L109 321.5L122.75 307.75H123.25L123.5 307L125.5 305.25L141 289.75H141.5V289.25H142V288.75L144 287L157.25 273.75L158.75 272.5L160.25 270.75L162.25 269L163 267.75L161 265.25L158.75 262.75L156.5 260L154.5 257.75L152.25 255L148.75 250.75L146.25 247.5L143.5 244L140.5 240L137 235.25L133.5 230.25L130.75 226.25L125.5 218.25L121.75 212.25L118.5 206.75L114.75 200.25L113 196.75L112 193.25L111.75 189.25L112.25 185.75L113.5 182L115.25 179L117.25 176.5L119 174.75L122.5 172.5L125.5 171.25L129.5 170.5H133.5L137 171.25L140 172.5L142.75 174.25L145.25 176.5L147.5 179.25L150.5 184.5L154 190.5L158 197L166 209L169.5 214L174.75 221L178.25 225.5L181.5 229.5L183.75 232.25L186.75 235.75L191.25 240.75L191.5 241.5L192.5 241.25L194.75 238.5L197.5 235.5L199.75 232.75L202.75 229.25L205.5 225.75L210.5 219.25L214 214.5L217.25 210L221.25 204L223 201.5L229 192L232.25 186.5L235.5 180.75L237.25 177.75L239.25 173.75L241.75 169L245 162.5L248.25 155.5L252.75 145L256 136.75L258.25 130.5L259.25 127.75H42L37.75 127.25L34 126L30.75 124.25L28.25 122.25L26 120L24.25 117.5L22.5 114L21.5 110.75L21 107.25L21.25 103.5L22.25 99.5L24.25 95.25L27 91.75L29.5 89.5L33 87.25L36.25 86L39.5 85.25H170.25L170.5 61.75L171.25 58L172.5 54.75L174.25 51.75L176.25 49.25L178 47.5L181.25 45.25L184.25 43.75L187.75 42.75L189.75 42.5Z" fill="black"/>
<path d="M369.25 213.25H377.25L381 214L385.5 215.5L389.75 217.75L392.5 219.75L395 222L397.5 224.5L400.25 228.5L402.25 232.5L414.25 264.5L419 277.25L444.5 345.25L447.75 354L455.25 374L457 378.5L458.5 382.75L460 386.5L461.5 390.75L463 394.5L464.5 398.75L466 402.5L467.5 406.75L481 442.75L482 446.75V451.75L481 456L479 460L477 462.75L474 465.5L470.5 467.5L467.25 468.75L463 469.5H460.75L456.5 468.75L453.25 467.5L450.25 465.75L447.75 463.5L446 461.75L443.75 458.25L441.5 453L438.25 444.25L434.5 434.25L430.25 423L425.75 411L423.75 405.75L398.5 405.5H322.5L322.25 406.75L319.5 414.25L315.25 425.75L311.5 435.75L307.25 447.25L303.75 456.5L301.75 460.25L299.75 463H299.25L298.75 464L295.75 466.25L292.25 468L289 469L285.75 469.5H283.5L279.25 468.75L276 467.5L273 465.75L269.75 462.75L267.5 459.75L265.75 456.25L264.75 452.25V447.25L265.75 443L270.5 430.25L280.25 404.25L283.5 395.5L296.25 361.5L299.5 353L301 348.75L309.25 326.75L314.75 312L338.75 248L342.75 237.25L345.25 231L347.25 227.25L349.5 224.25L352.25 221.25L355.75 218.5L359 216.5L363 214.75L367.75 213.5L369.25 213.25ZM373.25 271L371.25 275.75L368.25 284L363.75 296L362 300.5L360.5 304.75L359 308.5L357.5 312.75L356 316.5L354.5 320.75L352.5 326L349.25 334.75L341.75 354.75L339 362.25V362.5H407.5L407.25 361.25L403.5 351L395.25 329L392 320.5L390.5 316.25L383 296.25L379 285.5L375.25 275.5L373.75 271.25L373.25 271Z" fill="black"/>
</svg>
