<svg width="512" height="512" viewBox="0 0 512 512" fill="none" xmlns="http://www.w3.org/2000/svg">
<g clip-path="url(#clip0_124_48)">
<path d="M237.25 0H273.75V0.25L289 2L298.25 3.25L313.25 6.25L319.75 7.75L336.75 12.75L339.75 14L342.25 15.75L344.25 18.5L345.25 21.75L345 25.5L343 29.5L341 31.25L338.5 32.5L336.5 33L332.25 32.75L323.5 30.25L314.25 27.5L301.5 24.75L293.75 23.25L279.5 21.5L274.5 21L262.5 20.5H246.5L237.25 21L225.25 22.25L212.75 24.25L201.25 26.75L194.5 28.5L183.5 31.75L172.25 35.75L163.75 39.25L155.75 42.75L150.75 45.25L146.5 47.5L144.25 48.25V48.75L145.75 49L156.75 53.25L164 56L167.75 57.5L177.75 61.25L191 66.25L195 68.25L198.25 70.5L200.5 72.75L203 76L205 79.75L206 83L207 87.25L208 89.25L210.25 91.75L212.5 93.5L214.5 94.5L217.25 95.25L219 95.5H221L224.5 94.75L228 93.25L233.5 90.25L240.75 86.5L248.25 83.25L255 81.25L260.25 80.25L264 79.75H275.5L282.75 80.75L290 82.75L296 85.25L300 87.25L304.75 90L308.25 92.5L311.75 95.25L314.75 98L318.5 101.75L321.25 105.25L324.5 109.75L328 116.25L329.75 120.25L332 127L333.5 134.25L334 139.5V148L333.75 152L332.5 158L330.75 163L328.5 167.25L326.5 170L325 172H324.5L324 173L322.5 174.5H322V175L318 178L314.5 180L309.5 182L302 184L287.25 187.5L284.25 188.5L281.5 190L278.75 192.5L277.25 194.75L275.75 198.75L273.75 208.25L270 226.75L267.5 239L267 241.75V246.75L268 250L269.5 252.75L271.75 255.25L275 257.25L277.25 258L279.75 258.5L293 259.25L298.25 260L302.25 261.25L304.75 262.25L307.5 264.25L309 266L310.25 268.75L310.5 270V272.75L309.5 276L307.5 278.75L305.5 280.25L303 281.25L301.75 281.5H299.5L292.5 279.75L279.5 279L273.75 278.25L271 277.5L265.75 275.5L261.25 272.75L259 271L253.75 265.75L251 261.5L249 257.5L247.25 252.25L246.25 245.5L246.5 241.5L247.25 235.75L251.25 215.75L255.25 196L256.75 190.5L258.5 186.25L260.5 182.75L262.75 179.75L265.5 176.75L268.5 174L272.75 171.25L277 169.25L282.5 167.5L301.5 163L305.5 161.5L307.75 160L310 158L311.75 155.25L312.75 152.25L313.25 150L313.5 146.75V140.75L312.75 135L311.5 130.25L309.5 125L307 120.5L303.75 116L301 113L299.25 111.25L295.25 108.25L291.25 105.75L287.25 103.75L282.75 102L277.75 100.75L274 100.25H265.5L259.5 101.25L254.75 102.75L250.25 104.75L246.25 106.75L239 110.5L235 112.5L230.5 114.25L226.5 115.25L223.75 115.75H215.75L213 115.25L207 113.5L202 111L199.5 109.25L196 106.25L193.75 104L190.5 99.75L188.5 96L187 92.5L186 87.75L185.25 86.25L181.25 84.5L166.75 79L154.25 74.25L122.75 62.25L121.5 62.5L118.25 65L114.75 67.5L110.5 70.75L108 72.75L105.25 75L103 77L100.25 79.25L97.25 82L95.25 83.75L91 88L89 89.75L85.5 93.25L83.75 95.25L80.25 99L78.5 101L77.75 102H77.25L76.75 103L74.25 106L71.5 109.5L68.25 113.5L65.25 117.5L62.5 121.5L59 126.5L56.25 130.75L55 133L50.75 140L48.25 144.5L43.5 154L41 158L38.5 160L36 161L34.5 161.25H32.5L29.25 160.5L27 159L25.25 157.25L23.75 154.5L23.25 152.25V150L24.5 146L28.75 137.75L30.75 134L32.5 130.5L39.5 119L42 115L44.5 111.5L50.5 103L52.75 100L55 97.25L58.25 93.25L60.5 90.5L63.75 86.5L66.75 83.5L68.5 81.5L70 79.75H70.5L71 78.75L73.25 76.5L75 74.5L76 73.5H76.5V73L78.5 71.25L82.5 67.5L84.5 65.75L86.5 63.75L88.5 62L92.5 58.75L96 56L100.25 52.5L104.25 49.5L109.25 46L115 42L118.75 39.5L126 35.25L129.75 33L135 30L149.5 22.75L159.75 18.5L166.5 15.75L175.25 12.75L183.75 10L200.5 5.75L211 3.75L220.25 2.25L228.5 1.25L235.75 0.5L237.25 0.25V0Z" fill="black"/>
<path d="M96.25 199H106.75L114.5 199.75L120.75 200.75L128 202.5L134.25 204.5L140.25 206.75L146.75 209.75L151.75 212.5L157 215.75L161.75 219.25L164 221L167.25 223.75L169.75 226L171.25 227.25V227.75L172.25 228.25L173.5 229.75L176.75 233L179 235.75L182 239.5L185 243.75L188 248.5L190.5 253L193.5 259L196.5 266.75L199.25 275L202 278.75L209 288.75L214.5 296.75L217.5 301L220.25 305L224.25 310.75L227 314.75L230.5 319.75L233.25 323.75L236.75 328.75L239.5 332.75L243 337.75L245 341L246 344V347.5L244.75 350.75L242.5 353.25L241.25 354.25L239 355.25L237.25 355.75H234.25L231.5 354.75L229.25 353.25L226.5 350L224.5 347L220.5 341.25L217.75 337.25L214.25 332.25L211.5 328.25L208 323.25L205.25 319.25L202 314.5L201.5 313.75L201 315.25L198.75 326.25L195.75 335.25L193.75 340.5L190.5 347L187.5 352.5L184.25 357.25L180.75 362.25L178.75 365L176 368.5L172.5 373L167 380L164.5 383.25L161.75 386.75L159.75 389.25L156.5 393.5L151 400.5L148.5 403.75L145.5 407.5L140.5 414L135 421L132.5 424.25L129.75 427.75L126.75 431.5L124.5 434.5L119 441.5L112 450.5L109.25 454L107 456.25L104.5 457.5L102.75 458H99.25L96.75 457.25L94.5 455.75L92.5 453.75L90 450.5L87.25 447L84.75 443.75L81.75 440L78.75 436L75.5 432L72.5 428L69.25 424L67 421L63.5 416.5L60.5 412.75L58 409.5L54.5 405L51.75 401.5L49.25 398.25L45.75 393.75L42.75 390L37.75 383.5L35 380L31.5 375.5L28.75 372L21.75 363L18.25 358.25L15.75 354.5L13 350L10 344.25L8 340L5.5 333.5L3.5 327.25L2 321L0.75 314L0 310V289.75H0.5L0.75 286.5L2 279L4.25 270.25L7 262.5L9.25 257.5L11.25 253.5L13.25 249.75L15.25 246.5L17.5 243L23.5 235L27.5 230.75L29.75 228.25L34 224.25L36.5 222L39.5 219.75L44.25 216.25L49.5 213L54.75 210L61.5 206.75L69 204L75 202.25L81.5 200.75L89.5 199.5L96.25 199ZM96.5 219.25L88.75 220L82.5 221.25L76 223L68.25 226L64 228L59.25 230.75L55 233.5L49.75 237.5L47.25 239.75L44.25 242.5L41.25 245.5L39.5 247.5L36.25 251.5L35.25 253L33.5 255.5L32 257.75L30.5 260.5L28 265.25L26 269.75L23.75 276L22 282.5L20.75 289.5L20.25 295.25L20 301L20.5 308.25L21.25 314L22.75 320.75L24.75 327.25L27.5 334L30.25 339.5L32.25 342.75L35.25 347.25L37.5 350.25L42.5 356.75L45.75 360.75L47.75 363.5L50.75 367.25L54 371.5L57 375.25L59.5 378.5L66.5 387.5L69.25 391L72.75 395.5L75.5 399L82.5 408L85.5 411.75L88 415L91.5 419.5L99.75 430L100.75 431.25L101.75 430.75L105 426.5L108 422.75L111.25 418.5L114.25 414.75L116 412.5L118.5 409.25V408.75H119L121.25 405.75L124.75 401.25L127.75 397.5L130 394.5L132.75 391L139.75 382L142.75 378.25L144.5 376L147.75 371.75L150.5 368.25L152.5 365.75L155 362.5L157.75 359L161.25 354.5L163.75 351.25L166 348.25L168.5 344.75L170.5 341.5L172.75 337.5L175.5 331.75L178 325L179.75 318.75L181 312L181.5 308L181.75 304.5V296L181.25 290L180 282.75L178.25 276L175.5 268.5L172 261.25L169.5 257L167.5 254L164.5 250L162.25 247.25L159.5 244.25L158.5 243H158V242.5H157.5V242L155.5 240.25L153 238L148.75 234.75L144.75 232L139.25 228.75L132 225.25L124.25 222.5L117.5 220.75L109 219.5L104.5 219.25H96.5Z" fill="black"/>
<path d="M360.25 330.25L364.25 331.25L367 333.25L368.5 335.25L369.5 337.25L370 340L369.75 345.75L368 366L366 389.75L364.5 407.5L364 413.25V423L365.25 429.25L367 434L369.25 438.25L371.25 441L373.5 443.75L375.5 445.75L379 448.5L381.5 450.25L385.25 452.25H386.5L390.25 449.5L395.25 446L398.75 443.5L403 440L406.5 437.25L409.25 435L414.25 430.5L415 429.75H415.5V429.25L417.5 427.5L420.5 424.75L426 419.25L427.75 417.25L432 413L434.25 411.25L436.5 410.25L437.75 410H441L443.5 410.75L445.75 412.25L447.5 414L448.75 416.25L449.5 419.25L449 423L447.5 426L445.25 428.5L443.5 430.5L441.5 432.5L441.25 433H440.75L440.25 434L434.25 440L432.25 441.75L428.75 445.25L426.75 447L419.75 453L417 455.25L412.5 458.75L406.5 463.25L402.25 466.25L396.25 470.25L392 473L385 477.25L380.5 479.75L374 483.25L369.25 485.75L362.25 489L357.25 491.25L348 495L339 498.25L332.25 500.5L321.75 503.5L310.25 506.25L297.25 508.75L286.5 510.25L270.75 512H238.25V511.75L232.75 511L221.25 509.75L207.5 507.5L197.25 505.25L190 503.5L178 500L172 498L160.5 493.75L152.5 490.25L145.75 487.25L137.75 483.25L133 480.75L130.25 479L128.5 477.5L127 475L126.25 473.25L126 470L127 466.5L129 463.75L130.75 462.25L132.75 461.25L135.75 460.75L138.25 461L141.25 462L148.75 465.75L153.5 468.25L158.25 470.5L170 475.5L178.5 478.5L187.25 481.5L198.5 484.5L202 485.5H202.75L206 479.5L209.25 473.75L212.5 467.75L215.75 462L218.75 456.75L219.5 455.75H220V455.25L222.75 453.5L225 452.75L239.25 452.5L245 452L248 451L251 449.5L253.75 447.25L255.75 445L257.5 442L258.75 438L259 435.25L259.25 419L259.75 414.25L261.25 408.25L263.25 403.5L264.75 400.75L266.75 397.75L269 395.5L271.5 394.25L273.5 393.75H276L278.25 394.25L280.75 395.5L283.25 398L284.5 400.5L285 402.5V405.25L284.25 407.5L281.5 413.25L280.5 415.75L280 418.5L279.75 433.75L279 441.25L277.75 446L276.75 449L274.25 453.75L273 456L270.75 458.75L268 462L265.25 464.25L262.75 466.25L258.25 468.75L255 470.25L250.25 471.75L244 472.75L239.25 473H232.75L232.25 474.25L229.5 479.5L226.25 485.25L224.25 489L224 489.75H226.75L239.5 491L250.75 491.5H262.25L273 491L285.5 489.75L297 488L308 485.75L315.25 484L325.75 481L334.75 478L342.25 475.25L349.25 472.25L355 469.75L362 466.25L365.75 464.5L364.5 463.25L363 462V461.5L362 461L358.5 457.5V457H358L355.75 454.25L352.75 450.25L349.75 445L347.75 440.75L346 436L344.75 431.5L343.75 426L343.25 422V415.25L346.25 379.25L349.5 341L350.25 337.25L351.5 334.75L353.5 332.5L355.5 331.25L356.75 330.75L360.25 330.25Z" fill="black"/>
<path d="M418.5 0H438.25L439.25 0.5L446.25 1.75L453 3.5L460 6L467 9.25L470.5 11.25L475.25 14.25L480 17.75L482.75 20L487 24L490.25 27.25L492 29.25L495.25 33.25L499 38.75L502 43.75L505 49.75L507.25 55.5L508.75 60L510.5 67L511.5 73L512 72.75V94L511.5 94.75L510.5 100.25L509 106.75L506.5 114.25L504 120L501 125.75L497.5 131.25L495 134.75L492.5 138L487 145L484.5 148.25L481.75 151.75L479.75 154.25L477.75 157L474.5 161L471.25 165.25L465.75 172.25L463.25 175.5L460.5 179L453.5 188L448 195L445.5 198.25L442.75 201.75L440.25 205L437.5 208.5L435.25 211L433.5 212.5L430.5 213.75L427.25 214L424.25 213.25L421.75 211.75L420 210L416.75 205.75L413.75 202L410.5 197.75L407.5 194L402.5 187.5L399.5 183.75L397 180.5L394.25 177L391.75 173.75L389 170.25L385.75 166L382.5 162L380.25 159L376.75 154.5L374 151L370.5 146.5L367.75 143L364.25 138.5L361 134.25L358 130L354.75 124.75L352.5 120.5L350 114.75L347 105.75L345.25 97.75L344.25 89.25V79L344.75 73.5L346 66L348 58.5L350.75 51L354.5 43.25L357.75 38L360.75 33.75L363.25 30.5L367.75 25.5L371.75 21.5L373.75 19.75L376.25 17.75L380.25 14.75L385 11.75L389.25 9.25L395.5 6.25L402.25 3.75L411 1.5L418.25 0.25L418.5 0ZM422.75 20.25L416.75 21L410.5 22.5L405.25 24.25L401.25 26L395.5 29L391.75 31.5L388.75 33.75L385.5 36.5L383.25 38.5L381.5 40.5L378.75 43.5L375.25 48.25L373 52L371 55.5L368.5 61.25L366.75 66.75L365.75 70.75L364.75 76.75L364.5 81V85.5L365.25 94L367 101.5L368.75 106.75L372.25 114.5L378.25 123.5L381.5 127.75L384.75 131.75L386.75 134.5L389.75 138.25L393 142.5L396 146.25L398.5 149.5L409 163L414.5 170L418 174.5L423.5 181.5L427 186L427.75 187L428.75 186.75L432.25 182.25L435.25 178.5L437.75 175.25L438.5 174.25V173.75H439L442.75 168.75L446 164.75L449.75 159.75L453 155.75L455.5 152.5L458.75 148.25L462 144.25L464.25 141.25L469.75 134.25L472.75 130.5L475 127.5L477.5 124.25L481.5 118.5L483.75 115L486.5 109L488 105.75L489.75 99.75L490.75 95.75L491.75 86V79.75L491 73.5L490 68.5L488.25 62.5L485.75 56.5L483 51.25L480.25 47L477 42.75L473.5 39L471 36.5L468.25 34.25L464 31L459 28L455 26L452.25 24.75L446.75 22.75L440.5 21.25L435.75 20.5L433 20.25H422.75Z" fill="black"/>
<path d="M99.75 243.25L106.25 243.5L113 244.5L119.25 246.25L124 248L129.5 250.75L134.25 253.75L137.5 256.25L140.5 259L142.5 260.75L145.75 264.25L149.25 269L151.75 273L154.5 278.5L156.75 284.75L158 289.75L158.75 294L159 296.75V306.25L158.25 311.75L157 317.5L155 323.25L152.75 328.25L149.75 333.25L147.25 336.75L145.25 339.25L142.25 342.5L140.25 344.5L137.5 346.75L134.25 349.25L130.25 351.75L124.5 354.75L118.5 357L111.5 358.75L106.25 359.5L100.25 359.75L95.25 359.5L89 358.5L83.5 357L78.75 355.25L72.5 352.25L68.5 349.75L64.5 346.75L62 344.5L60 342.75L58.25 341L56.5 339L53 334.5L50 329.5L48 325.5L46.5 322L45 317.5L43.75 312.25L43 307L42.75 303.25V300L43.25 294L44.25 288.5L45.75 283.25L47.5 278.5L49.75 273.75L53 268.5L55.5 265.25L58.25 262L62.25 258L65.75 255.25L69.5 252.5L74.25 249.75L79 247.5L85.75 245.25L90 244.25L95.75 243.5L99.75 243.25ZM98 263.75L92.75 264.5L87.75 266L84.75 267.25L80.25 269.75L77.75 271.75L75 274L73 276L70.25 279.5L68.75 281.75L66 287L64 293.25L63.25 299.25V304L64 309.75L65.75 315.5L67.75 319.5L69.75 323L72 325.75L74.25 328.25L77.25 331L80.75 333.5L85.75 336.25L91 338L93.75 338.75L98.25 339.25H103.5L108 338.75L114 337L117 335.75L122 333L124.5 331L127.25 328.75L129 327L131.25 324.25L133 321.75L135.75 316.75L137.25 312.25L138 309.75L138.75 303.5V299.75L138 293.5L136.25 287.75L133.75 282.5L132 279.75L128.5 275.5L126.25 273.25L123.75 271.25L121.25 269.5L116.25 266.75L110.25 264.75L106.25 264L103.5 263.75H98Z" fill="black"/>
<path d="M426 42.75H430.25L436.75 43.5L443.25 45.5L446.25 46.75L452 50L455.5 53L458.25 55.25L460.5 58L463 61L465 64.5L467 68.25L469.25 75L469.75 77.25L470.5 84.25L470.25 87.5L469.75 93L467.75 99.75L466 103.75L463.5 108.25L460.75 111.75L458 115L454.5 118L451 120.5L445 123.75L439 125.75L436 126.5L428.5 127.25L422 126.75L418.75 126.25L411.25 123.75L405.25 120.5L402 118L398.5 115L395.75 112L393 108.5L390.5 104L389 101L387 94.75L386.25 90.5L386 88V82L386.75 76.25L389 68.75L391.5 64L393.5 60.75L396.25 57.5L397.5 55.75H398L398.5 54.75L402 51.75L405.5 49.25L411.5 46L416.75 44.25L419.5 43.5L426 42.75ZM426.5 63L422.25 63.75L418.75 65L415 67.25L412 70L410 72.5L408.25 75.5L407 78.75L406.5 81L406.25 83.25V87L407 91.25L408.5 95L410.75 98.5L411.5 99.5H412L412.5 100.5L414.75 102.5L418.5 104.75L421.75 106L425 106.75H431.25L435.5 105.75L439.5 103.75L442 102L444.5 99.75L446.5 97.25L448 94.75L449.25 91.25L450 87.75V82.5L449.25 78.75L448 75.5L446.5 72.75L444.75 70.5L443.5 69L440.25 66.5L436.5 64.5L433.25 63.5L429.75 63H426.5Z" fill="black"/>
<path d="M490 178H494.75L497.75 179.25L500.25 181.5L501.75 184L503 187.75L506.5 202L509.25 217.5L510.25 225.25L511.5 237L512 236.75V274.75H511.5L509.5 293L508.5 299.25L505.75 313.25L503.5 322L500.5 332.75L499 335.75L498 337L496 338.5L493 339.75L490 340L487.5 339.5L485 338.25L483.25 336.75L481.5 334L480.5 330.75L481 326.75L483.75 316.25L485.75 308.75L488.5 294.5L489.75 285.25L490.75 276L491.25 267.25L491.5 260.25V250.5L491 238.75L489.75 226.5L488.75 219.25L486.5 206.75L482.75 191.5L482.25 187L483.25 183.5L485.25 180.75L487 179.25L489 178.25L490 178Z" fill="black"/>
<path d="M233.5 392.25H236.25L239 393L241.5 394.75L243.5 397L244.75 400L245 401.25V403.5L244.5 405.75L242.75 408.75L240.5 410.75L236.25 413L233.5 414L231.25 414.5H228.75L226.25 413.75L223.75 412.25L222 410.25L220.75 407.5L220.25 405.75V403.5L220.75 401.25L222 398.75L223.75 396.75L227.75 394.25L231.5 392.75L233.5 392.25Z" fill="black"/>
<path d="M193 411.5H195.5L198.25 412.25L201 414L203 416.5L204 419L204.25 420V422.75L203.75 425L202 428L199.75 430L195.5 432.25L191.5 433.5L190.5 433.75H188L185 432.75L183 431.25L181 429L179.75 426L179.5 423.25L180.25 420L181.5 417.75L182.5 416.5L185.25 414.5L189.25 412.5L193 411.5Z" fill="black"/>
<path d="M281.25 317H286L288.5 318L291 320L292.75 322.5L293.75 325.75V328L292.75 331.25L290.5 335.25L288 338.5L285.75 340L283.25 341H278.75L276 340L273.5 337.75L272 335.75L271 333.25V329.25L272.5 325.25L275.5 320.75H276L276.5 319.75L278.25 318.25L281.25 317Z" fill="black"/>
<path d="M257 355H262L264.25 356L265.75 357L267.75 359L269 361.5L269.5 363V366.75L268 370.5L265.5 374.5L263.25 377L261.25 378.25L259 379H254.5L251.5 377.75L249 375.5L247.5 373L247 371.75L246.75 370.25V368L247.75 364.5L249.75 361L251.75 358.5L253 357.25L254.5 356L257 355Z" fill="black"/>
<path d="M406.25 291.5L409.5 291.75L412 292.75L414.25 294.5L415.75 296.5L417 299.5V303.75L415.75 306.75L413.5 309.25L411.5 310.75L407.75 312.75L404.75 313.75L401.5 314L398.5 313.25L396.25 311.75L394.5 310L393 307L392.5 305L392.75 301.75L393.5 299.75L395 297.25L397.75 295L401.75 292.75L404.5 291.75L406.25 291.5Z" fill="black"/>
<path d="M358.25 297.75H363L366 298.25L368.25 299.25L370.25 300.75L371.75 302.5L372.75 304.5L373.25 306.5V309.25L372.75 311.5L371.25 314.25L369.5 316L366.5 317.5L364 318H357.25L354.25 317.25L351.75 315.75L349.75 313.5L348.5 310.75L348.25 309.75V306.25L349.25 303.25L351 301L353 299.25L355.25 298.25L358.25 297.75Z" fill="black"/>
<path d="M313.5 297.75H318L321 298.25L323.25 299.25L325.25 300.75L326.75 302.5L327.75 304.5L328.25 306.5V309.25L327.75 311.5L326.25 314.25L324.5 316L321.5 317.5L318.75 318H312.25L309.25 317.25L306.75 315.75L304.75 313.5L303.5 310.75L303.25 309.75V306.25L304.25 303.25L305.75 301.25L308 299.25L310.25 298.25L313.5 297.75Z" fill="black"/>
<path d="M427 254H429.25L432.25 254.75L434.75 256.5L436.75 258.75L438 261.75L438.25 263.25V266.75L437.75 271.25L436.75 273.75L435 276.25L432.5 278L430.5 278.75L429.5 279H426L423.25 278L421.75 277L420.25 275.75L418.75 273.25L418 271.5L417.75 269.75V265.75L418.25 262.25L419.25 259.25L420.75 257.25L422.75 255.5L424.75 254.5L427 254Z" fill="black"/>
<path d="M15.75 184H20L22.75 185L24.75 186.5L26.5 188.5L27.75 191.5L28 192.75V195.25L27.25 198.25L26 200.75L23.75 203.25L21.75 204.5L19 205.25H15.5L12.5 204L10.25 202.25L8.75 200.25L7.75 198L7.5 197V193.75L8.25 190.75L9.75 187.75L11.75 185.75L14.75 184.25L15.75 184Z" fill="black"/>
<path d="M466.5 369.25H471.5L473.75 370.25L475.75 371.75L477.5 373.75L478.5 375.5L479 377.5V380.75L477.75 384.25L476.25 386.25L474.5 388L471.75 389.25L468.5 389.75L465.5 389.25L463.5 388.25L461 386L459.5 383.5L458.75 381.25V378L459.75 375L461.25 372.75L463.25 370.75L466.5 369.25Z" fill="black"/>
</g>
<defs>
<clipPath id="clip0_124_48">
<rect width="512" height="512" fill="white"/>
</clipPath>
</defs>
</svg>
